<svg xmlns="http://www.w3.org/2000/svg" xmlns:xlink="http://www.w3.org/1999/xlink" xmlns:lucid="lucid" width="2040" height="2480.06"><g transform="translate(1780 -60)" lucid:page-tab-id="i~nq~w7xLxkQ"><path d="M-1806.4 0h3676.8v2582.4h-3676.8z" fill="#fff"/><path d="M-1562.06 86c0-3.3 2.7-6 6-6h372.72c3.32 0 6 2.7 6 6v48c0 3.3-2.68 6-6 6h-372.72c-3.3 0-6-2.7-6-6z" fill="none"/><use xlink:href="#a" transform="matrix(1,0,0,1,-1562.0555244906923,80) translate(-38.98148148148135 35.55555555555554)"/><use xlink:href="#b" transform="matrix(1,0,0,1,-1562.0555244906923,80) translate(17.685185185185276 88.88888888888886)"/><use xlink:href="#c" transform="matrix(1,0,0,1,-1562.0555244906923,80) translate(256.574074074074 88.88888888888886)"/><path d="M-1760 206c0-3.3 2.7-6 6-6h908c3.3 0 6 2.7 6 6v48c0 3.3-2.7 6-6 6h-908c-3.3 0-6-2.7-6-6z" stroke="#5e5e5e" stroke-width="3" fill="#fff"/><use xlink:href="#d" transform="matrix(1,0,0,1,-1755,205) translate(0 28.930555555555557)"/><path d="M-1676.36 306c0-3.3 2.68-6 6-6h684.97c3.32 0 6 2.7 6 6v48c0 3.3-2.68 6-6 6h-684.96c-3.32 0-6-2.7-6-6z" stroke="#5e5e5e" stroke-width="3" fill="#fff"/><use xlink:href="#e" transform="matrix(1,0,0,1,-1671.3636363636365,305) translate(0 28.930555555555557)"/><path d="M-1620.6 506c0-3.3 2.68-6 6-6h489.8c3.33 0 6 2.7 6 6v48c0 3.3-2.67 6-6 6h-489.8c-3.32 0-6-2.7-6-6z" stroke="#5e5e5e" stroke-width="3" fill="#fff"/><use xlink:href="#f" transform="matrix(1,0,0,1,-1615.6060606060605,505) translate(0 28.930555555555557)"/><path d="M-1620.6 606c0-3.3 2.68-6 6-6h489.8c3.33 0 6 2.7 6 6v48c0 3.3-2.67 6-6 6h-489.8c-3.32 0-6-2.7-6-6z" stroke="#5e5e5e" stroke-width="3" fill="#fff"/><use xlink:href="#g" transform="matrix(1,0,0,1,-1615.6060606060605,605) translate(0 28.930555555555557)"/><path d="M-1620.6 706c0-3.3 2.68-6 6-6h489.8c3.33 0 6 2.7 6 6v48c0 3.3-2.67 6-6 6h-489.8c-3.32 0-6-2.7-6-6z" stroke="#5e5e5e" stroke-width="3" fill="#fff"/><use xlink:href="#h" transform="matrix(1,0,0,1,-1615.6060606060605,705) translate(0 28.930555555555557)"/><path d="M-1620.6 406c0-3.3 2.68-6 6-6h489.8c3.33 0 6 2.7 6 6v48c0 3.3-2.67 6-6 6h-489.8c-3.32 0-6-2.7-6-6z" stroke="#5e5e5e" stroke-width="3" fill="#fff"/><use xlink:href="#i" transform="matrix(1,0,0,1,-1615.6060606060605,405) translate(0 28.930555555555557)"/><path d="M-1620.6 806c0-3.3 2.68-6 6-6h489.8c3.33 0 6 2.7 6 6v48c0 3.3-2.67 6-6 6h-489.8c-3.32 0-6-2.7-6-6z" stroke="#5e5e5e" stroke-width="3" fill="#fff"/><use xlink:href="#j" transform="matrix(1,0,0,1,-1615.6060606060605,805) translate(0 28.930555555555557)"/><path d="M-1620.6 906c0-3.3 2.68-6 6-6h489.8c3.33 0 6 2.7 6 6v48c0 3.3-2.67 6-6 6h-489.8c-3.32 0-6-2.7-6-6z" stroke="#5e5e5e" stroke-width="3" fill="#fff"/><use xlink:href="#k" transform="matrix(1,0,0,1,-1615.6060606060605,905) translate(0 28.930555555555557)"/><path d="M-1663.1 362.5v2165.56" stroke="#5e5e5e" stroke-width="2" fill="none"/><path d="M-1662.1 362.53h-2v-1.03h2z" fill="#5e5e5e"/><path d="M-1663.1 2528.03v1.03" stroke="#5e5e5e" stroke-width="2" fill="none"/><path d="M-1620.6 1306c0-3.3 2.68-6 6-6h489.8c3.33 0 6 2.7 6 6v48c0 3.3-2.67 6-6 6h-489.8c-3.32 0-6-2.7-6-6z" stroke="#5e5e5e" stroke-width="3" fill="#fff"/><use xlink:href="#l" transform="matrix(1,0,0,1,-1615.6060606060605,1305) translate(0 28.930555555555557)"/><path d="M-1729.67 262.5V359" stroke="#5e5e5e" stroke-width="2" fill="none"/><path d="M-1728.67 262.53h-2v-1.03h2z" fill="#5e5e5e"/><path d="M-1729.67 358.97V360" stroke="#5e5e5e" stroke-width="2" fill="none"/><path d="M-1620.6 1206c0-3.3 2.68-6 6-6h489.8c3.33 0 6 2.7 6 6v48c0 3.3-2.67 6-6 6h-489.8c-3.32 0-6-2.7-6-6z" stroke="#5e5e5e" stroke-width="3" fill="#fff"/><use xlink:href="#m" transform="matrix(1,0,0,1,-1615.6060606060605,1205) translate(0 28.930555555555557)"/><path d="M-1620.6 1006c0-3.3 2.68-6 6-6h489.8c3.33 0 6 2.7 6 6v48c0 3.3-2.67 6-6 6h-489.8c-3.32 0-6-2.7-6-6z" stroke="#5e5e5e" stroke-width="3" fill="#fff"/><use xlink:href="#n" transform="matrix(1,0,0,1,-1615.6060606060605,1005) translate(0 30.27777777777778)"/><path d="M-1620.6 1106c0-3.3 2.68-6 6-6h489.8c3.33 0 6 2.7 6 6v48c0 3.3-2.67 6-6 6h-489.8c-3.32 0-6-2.7-6-6z" stroke="#5e5e5e" stroke-width="3" fill="#fff"/><use xlink:href="#o" transform="matrix(1,0,0,1,-1615.6060606060605,1105) translate(0 30.27777777777778)"/><path d="M-1520 1906c0-3.3 2.7-6 6-6h283.6c3.32 0 6 2.7 6 6v48c0 3.3-2.68 6-6 6H-1514c-3.3 0-6-2.7-6-6z" stroke="#5e5e5e" stroke-width="3" fill="#fff"/><use xlink:href="#p" transform="matrix(1,0,0,1,-1515,1905) translate(0 28.930555555555557)"/><path d="M-1520 1706c0-3.3 2.7-6 6-6h283.6c3.32 0 6 2.7 6 6v48c0 3.3-2.68 6-6 6H-1514c-3.3 0-6-2.7-6-6z" stroke="#5e5e5e" stroke-width="3" fill="#fff"/><use xlink:href="#q" transform="matrix(1,0,0,1,-1515,1705) translate(0 28.930555555555557)"/><path d="M-1620.6 1506c0-3.3 2.68-6 6-6h489.8c3.33 0 6 2.7 6 6v48c0 3.3-2.67 6-6 6h-489.8c-3.32 0-6-2.7-6-6z" stroke="#5e5e5e" stroke-width="3" fill="#fff"/><use xlink:href="#r" transform="matrix(1,0,0,1,-1615.6060606060605,1505) translate(0 28.930555555555557)"/><path d="M-1520 1806c0-3.3 2.7-6 6-6h283.6c3.32 0 6 2.7 6 6v48c0 3.3-2.68 6-6 6H-1514c-3.3 0-6-2.7-6-6z" stroke="#5e5e5e" stroke-width="3" fill="#fff"/><use xlink:href="#s" transform="matrix(1,0,0,1,-1515,1805) translate(0 28.930555555555557)"/><path d="M-1580.5 1606c0-3.3 2.7-6 6-6h391.9c3.33 0 6 2.7 6 6v48c0 3.3-2.67 6-6 6h-391.9c-3.3 0-6-2.7-6-6z" stroke="#5e5e5e" stroke-width="3" fill="#fff"/><use xlink:href="#t" transform="matrix(1,0,0,1,-1575.4878048780488,1605) translate(0 28.930555555555557)"/><path d="M-1555.24 1662.5V1955" stroke="#5e5e5e" stroke-width="2" fill="none"/><path d="M-1554.24 1662.53h-2v-1.03h2z" fill="#5e5e5e"/><path d="M-1555.24 1954.97v1.03M-1612.36 1562.5V1663" stroke="#5e5e5e" stroke-width="2" fill="none"/><path d="M-1611.36 1562.53h-2v-1.03h2z" fill="#5e5e5e"/><path d="M-1612.36 1662.97v1.03M-1540 1730h-14.24" stroke="#5e5e5e" stroke-width="2" fill="none"/><path d="M-1524.74 1730l-14.26 4.64v-9.28z" stroke="#5e5e5e" stroke-width="2" fill="#5e5e5e"/><path d="M-1554.22 1730h-1.02M-1540 1830h-14.24" stroke="#5e5e5e" stroke-width="2" fill="none"/><path d="M-1524.74 1830l-14.26 4.64v-9.28z" stroke="#5e5e5e" stroke-width="2" fill="#5e5e5e"/><path d="M-1554.22 1830h-1.02M-1540 1930h-14.24" stroke="#5e5e5e" stroke-width="2" fill="none"/><path d="M-1524.74 1930l-14.26 4.64v-9.28z" stroke="#5e5e5e" stroke-width="2" fill="#5e5e5e"/><path d="M-1554.22 1930h-1.02M-1600.5 1630h-10.86" stroke="#5e5e5e" stroke-width="2" fill="none"/><path d="M-1585.22 1630l-14.27 4.64v-9.28z" stroke="#5e5e5e" stroke-width="2" fill="#5e5e5e"/><path d="M-1611.34 1630h-1.02" stroke="#5e5e5e" stroke-width="2" fill="none"/><path d="M-1620.6 1406c0-3.3 2.68-6 6-6h489.8c3.33 0 6 2.7 6 6v48c0 3.3-2.67 6-6 6h-489.8c-3.32 0-6-2.7-6-6z" stroke="#5e5e5e" stroke-width="3" fill="#fff"/><use xlink:href="#u" transform="matrix(1,0,0,1,-1615.6060606060605,1405) translate(0 28.930555555555557)"/><path d="M-1620.6 2306c0-3.3 2.68-6 6-6h489.8c3.33 0 6 2.7 6 6v48c0 3.3-2.67 6-6 6h-489.8c-3.32 0-6-2.7-6-6z" stroke="#5e5e5e" stroke-width="3" fill="#fff"/><use xlink:href="#v" transform="matrix(1,0,0,1,-1615.6060606060605,2305) translate(0 28.930555555555557)"/><path d="M-1620.6 2106c0-3.3 2.68-6 6-6h489.8c3.33 0 6 2.7 6 6v48c0 3.3-2.67 6-6 6h-489.8c-3.32 0-6-2.7-6-6z" stroke="#5e5e5e" stroke-width="3" fill="#fff"/><use xlink:href="#w" transform="matrix(1,0,0,1,-1615.6060606060605,2105) translate(0 28.930555555555557)"/><path d="M-1620.6 2006c0-3.3 2.68-6 6-6h489.8c3.33 0 6 2.7 6 6v48c0 3.3-2.67 6-6 6h-489.8c-3.32 0-6-2.7-6-6z" stroke="#5e5e5e" stroke-width="3" fill="#fff"/><use xlink:href="#x" transform="matrix(1,0,0,1,-1615.6060606060605,2005) translate(0 28.930555555555557)"/><path d="M-1620.6 2206c0-3.3 2.68-6 6-6h489.8c3.33 0 6 2.7 6 6v48c0 3.3-2.67 6-6 6h-489.8c-3.32 0-6-2.7-6-6z" stroke="#5e5e5e" stroke-width="3" fill="#fff"/><use xlink:href="#y" transform="matrix(1,0,0,1,-1615.6060606060605,2205) translate(0 28.930555555555557)"/><path d="M-1620.6 2406c0-3.3 2.68-6 6-6h489.8c3.33 0 6 2.7 6 6v48c0 3.3-2.67 6-6 6h-489.8c-3.32 0-6-2.7-6-6z" stroke="#5e5e5e" stroke-width="3" fill="#fff"/><use xlink:href="#z" transform="matrix(1,0,0,1,-1615.6060606060605,2405) translate(0 28.930555555555557)"/><path d="M-1640.6 2030h-21.5" stroke="#5e5e5e" stroke-width="2" fill="none"/><path d="M-1625.34 2030l-14.27 4.64v-9.28z" stroke="#5e5e5e" stroke-width="2" fill="#5e5e5e"/><path d="M-1662.08 2030h-1.02M-1640.6 2130h-21.5" stroke="#5e5e5e" stroke-width="2" fill="none"/><path d="M-1625.34 2130l-14.27 4.64v-9.28z" stroke="#5e5e5e" stroke-width="2" fill="#5e5e5e"/><path d="M-1662.08 2130h-1.02M-1640.6 2230h-21.5" stroke="#5e5e5e" stroke-width="2" fill="none"/><path d="M-1625.34 2230l-14.27 4.64v-9.28z" stroke="#5e5e5e" stroke-width="2" fill="#5e5e5e"/><path d="M-1662.08 2230h-1.02M-1640.6 2430h-21.5" stroke="#5e5e5e" stroke-width="2" fill="none"/><path d="M-1625.34 2430l-14.27 4.64v-9.28z" stroke="#5e5e5e" stroke-width="2" fill="#5e5e5e"/><path d="M-1662.08 2430h-1.02M-1640.6 2330h-21.5" stroke="#5e5e5e" stroke-width="2" fill="none"/><path d="M-1625.34 2330l-14.27 4.64v-9.28z" stroke="#5e5e5e" stroke-width="2" fill="#5e5e5e"/><path d="M-1662.08 2330h-1.02M-1640.6 1530h-21.5" stroke="#5e5e5e" stroke-width="2" fill="none"/><path d="M-1625.34 1530l-14.27 4.64v-9.28z" stroke="#5e5e5e" stroke-width="2" fill="#5e5e5e"/><path d="M-1662.08 1530h-1.02M-1640.6 1430h-21.5" stroke="#5e5e5e" stroke-width="2" fill="none"/><path d="M-1625.34 1430l-14.27 4.64v-9.28z" stroke="#5e5e5e" stroke-width="2" fill="#5e5e5e"/><path d="M-1662.08 1430h-1.02M-1640.6 1330h-21.5" stroke="#5e5e5e" stroke-width="2" fill="none"/><path d="M-1625.34 1330l-14.27 4.64v-9.28z" stroke="#5e5e5e" stroke-width="2" fill="#5e5e5e"/><path d="M-1662.08 1330h-1.02M-1640.6 1230h-21.5" stroke="#5e5e5e" stroke-width="2" fill="none"/><path d="M-1625.34 1230l-14.27 4.64v-9.28z" stroke="#5e5e5e" stroke-width="2" fill="#5e5e5e"/><path d="M-1662.08 1230h-1.02M-1640.6 1130h-21.5" stroke="#5e5e5e" stroke-width="2" fill="none"/><path d="M-1625.34 1130l-14.27 4.64v-9.28z" stroke="#5e5e5e" stroke-width="2" fill="#5e5e5e"/><path d="M-1662.08 1130h-1.02M-1640.6 1030h-21.5" stroke="#5e5e5e" stroke-width="2" fill="none"/><path d="M-1625.34 1030l-14.27 4.64v-9.28z" stroke="#5e5e5e" stroke-width="2" fill="#5e5e5e"/><path d="M-1662.08 1030h-1.02M-1640.6 930h-21.5" stroke="#5e5e5e" stroke-width="2" fill="none"/><path d="M-1625.34 930l-14.27 4.64v-9.28z" stroke="#5e5e5e" stroke-width="2" fill="#5e5e5e"/><path d="M-1662.08 930h-1.02M-1640.6 830h-21.5" stroke="#5e5e5e" stroke-width="2" fill="none"/><path d="M-1625.34 830l-14.27 4.64v-9.28z" stroke="#5e5e5e" stroke-width="2" fill="#5e5e5e"/><path d="M-1662.08 830h-1.02M-1640.6 730h-21.5" stroke="#5e5e5e" stroke-width="2" fill="none"/><path d="M-1625.34 730l-14.27 4.64v-9.28z" stroke="#5e5e5e" stroke-width="2" fill="#5e5e5e"/><path d="M-1662.08 730h-1.02M-1640.6 630h-21.5" stroke="#5e5e5e" stroke-width="2" fill="none"/><path d="M-1625.34 630l-14.27 4.64v-9.28z" stroke="#5e5e5e" stroke-width="2" fill="#5e5e5e"/><path d="M-1662.08 630h-1.02M-1640.6 530h-21.5" stroke="#5e5e5e" stroke-width="2" fill="none"/><path d="M-1625.34 530l-14.27 4.64v-9.28z" stroke="#5e5e5e" stroke-width="2" fill="#5e5e5e"/><path d="M-1662.08 530h-1.02M-1640.6 430h-21.5" stroke="#5e5e5e" stroke-width="2" fill="none"/><path d="M-1625.34 430l-14.27 4.64v-9.28z" stroke="#5e5e5e" stroke-width="2" fill="#5e5e5e"/><path d="M-1662.08 430h-1.02" stroke="#5e5e5e" stroke-width="2" fill="none"/><path d="M-680 206c0-3.3 2.7-6 6-6h908c3.3 0 6 2.7 6 6v48c0 3.3-2.7 6-6 6h-908c-3.3 0-6-2.7-6-6z" stroke="#5e5e5e" stroke-width="3" fill="#fff"/><use xlink:href="#A" transform="matrix(1,0,0,1,-675,205) translate(0 28.930555555555557)"/><use xlink:href="#B" transform="matrix(1,0,0,1,-675,205) translate(132.67901234567904 28.930555555555557)"/><use xlink:href="#C" transform="matrix(1,0,0,1,-675,205) translate(322.25925925925935 28.930555555555557)"/><path d="M-568.48 306c0-3.3 2.68-6 6-6h684.96c3.32 0 6 2.7 6 6v48c0 3.3-2.68 6-6 6h-684.96c-3.32 0-6-2.7-6-6z" stroke="#5e5e5e" stroke-width="3" fill="#fff"/><use xlink:href="#D" transform="matrix(1,0,0,1,-563.4848484848485,305) translate(0 28.930555555555557)"/><path d="M-440 406c0-3.3 2.7-6 6-6H55.82c3.3 0 6 2.7 6 6v48c0 3.3-2.7 6-6 6H-434c-3.3 0-6-2.7-6-6z" stroke="#5e5e5e" stroke-width="3" fill="#fff"/><use xlink:href="#E" transform="matrix(1,0,0,1,-435,405) translate(0 28.930555555555557)"/><path d="M-440 506c0-3.3 2.7-6 6-6H55.82c3.3 0 6 2.7 6 6v48c0 3.3-2.7 6-6 6H-434c-3.3 0-6-2.7-6-6z" stroke="#5e5e5e" stroke-width="3" fill="#fff"/><use xlink:href="#F" transform="matrix(1,0,0,1,-435,505) translate(0 28.930555555555557)"/><path d="M-440 606c0-3.3 2.7-6 6-6H55.82c3.3 0 6 2.7 6 6v48c0 3.3-2.7 6-6 6H-434c-3.3 0-6-2.7-6-6z" stroke="#5e5e5e" stroke-width="3" fill="#fff"/><use xlink:href="#G" transform="matrix(1,0,0,1,-435,605) translate(0 28.930555555555557)"/><path d="M-367.8 706c0-3.3 2.68-6 6-6h283.6c3.32 0 6 2.7 6 6v48c0 3.3-2.68 6-6 6h-283.6c-3.32 0-6-2.7-6-6z" stroke="#5e5e5e" stroke-width="3" fill="#fff"/><use xlink:href="#H" transform="matrix(1,0,0,1,-362.8048780487805,705) translate(0 28.930555555555557)"/><path d="M-297.32 797.33c0-3.3 2.7-6 6-6h142.64c3.3 0 6 2.7 6 6V854c0 3.3-2.7 6-6 6h-142.64c-3.3 0-6-2.7-6-6z" stroke="#5e5e5e" stroke-width="3" fill="#fff"/><use xlink:href="#I" transform="matrix(1,0,0,1,-292.31707317073176,796.3333333333334) translate(0 19.555555555555557)"/><use xlink:href="#J" transform="matrix(1,0,0,1,-292.31707317073176,796.3333333333334) translate(0 48.88888888888889)"/><use xlink:href="#K" transform="matrix(1,0,0,1,-292.31707317073176,796.3333333333334) translate(27.160493827160497 48.88888888888889)"/><path d="M-614.34 262.5v100.55" stroke="#5e5e5e" stroke-width="2" fill="none"/><path d="M-613.34 262.53h-2v-1.03h2z" fill="#5e5e5e"/><path d="M-614.34 363.03v1.02M-505.38 362.5V659" stroke="#5e5e5e" stroke-width="2" fill="none"/><path d="M-504.38 362.53h-2v-1.03h2z" fill="#5e5e5e"/><path d="M-505.38 658.97V660M-406.05 662.5V759" stroke="#5e5e5e" stroke-width="2" fill="none"/><path d="M-405.05 662.53h-2v-1.03h2z" fill="#5e5e5e"/><path d="M-406.05 758.97V760M-333.95 762.5V859" stroke="#5e5e5e" stroke-width="2" fill="none"/><path d="M-332.95 762.53h-2v-1.03h2z" fill="#5e5e5e"/><path d="M-333.95 858.97V860M-1696.37 330h-32.3" stroke="#5e5e5e" stroke-width="2" fill="none"/><path d="M-1681.1 330l-14.27 4.64v-9.28z" stroke="#5e5e5e" stroke-width="2" fill="#5e5e5e"/><path d="M-1728.64 330h-1.03M-588.5 330h-24.84" stroke="#5e5e5e" stroke-width="2" fill="none"/><path d="M-573.22 330l-14.27 4.64v-9.28z" stroke="#5e5e5e" stroke-width="2" fill="#5e5e5e"/><path d="M-613.3 330h-1.04M-460 430h-44.38" stroke="#5e5e5e" stroke-width="2" fill="none"/><path d="M-444.74 430l-14.26 4.64v-9.28z" stroke="#5e5e5e" stroke-width="2" fill="#5e5e5e"/><path d="M-504.36 430h-1.02M-460 530h-44.38" stroke="#5e5e5e" stroke-width="2" fill="none"/><path d="M-444.74 530l-14.26 4.64v-9.28z" stroke="#5e5e5e" stroke-width="2" fill="#5e5e5e"/><path d="M-504.36 530h-1.02M-460 630h-44.38" stroke="#5e5e5e" stroke-width="2" fill="none"/><path d="M-444.74 630l-14.26 4.64v-9.28z" stroke="#5e5e5e" stroke-width="2" fill="#5e5e5e"/><path d="M-504.36 630h-1.02M-317.32 825.67h-15.63" stroke="#5e5e5e" stroke-width="2" fill="none"/><path d="M-302.05 825.67l-14.27 4.63v-9.27z" stroke="#5e5e5e" stroke-width="2" fill="#5e5e5e"/><path d="M-332.92 825.67h-1.03M-387.8 730h-17.25" stroke="#5e5e5e" stroke-width="2" fill="none"/><path d="M-372.54 730l-14.27 4.64v-9.28z" stroke="#5e5e5e" stroke-width="2" fill="#5e5e5e"/><path d="M-405.02 730h-1.03" stroke="#5e5e5e" stroke-width="2" fill="none"/><path d="M-547.94 86c0-3.3 2.68-6 6-6h643.88c3.32 0 6 2.7 6 6v48c0 3.3-2.68 6-6 6h-643.88c-3.32 0-6-2.7-6-6z" fill="none"/><g><use xlink:href="#a" transform="matrix(1,0,0,1,-547.9424424507812,80) translate(96.51851851851865 35.55555555555554)"/><use xlink:href="#b" transform="matrix(1,0,0,1,-547.9424424507812,80) translate(2.8765432098766723 88.88888888888886)"/><use xlink:href="#L" transform="matrix(1,0,0,1,-547.9424424507812,80) translate(241.76543209876544 88.88888888888886)"/><use xlink:href="#M" transform="matrix(1,0,0,1,-547.9424424507812,80) translate(364.85185185185185 88.88888888888886)"/><use xlink:href="#N" transform="matrix(1,0,0,1,-547.9424424507812,80) translate(492.8765432098765 88.88888888888886)"/></g><defs><path fill="#333" d="M67-125c0 53 21 87 73 88 37 1 54-22 65-47l45 17C233-25 199 4 140 4 58 4 20-42 15-125 8-235 124-281 211-232c18 10 29 29 36 50l-46 12c-8-25-30-41-62-41-52 0-71 34-72 86" id="O"/><path fill="#333" d="M85 4C-2 5 27-109 22-190h50c7 57-23 150 33 157 60-5 35-97 40-157h50l1 190h-47c-2-12 1-28-3-38-12 25-28 42-61 42" id="P"/><path fill="#333" d="M137-138c1-29-70-34-71-4 15 46 118 7 119 86 1 83-164 76-172 9l43-7c4 19 20 25 44 25 33 8 57-30 24-41C81-84 22-81 20-136c-2-80 154-74 161-7" id="Q"/><path fill="#333" d="M115-3C79 11 28 4 28-45v-112H4v-33h27l15-45h31v45h36v33H77v99c-1 23 16 31 38 25v30" id="R"/><path fill="#333" d="M110-194c64 0 96 36 96 99 0 64-35 99-97 99-61 0-95-36-95-99 0-62 34-99 96-99zm-1 164c35 0 45-28 45-65 0-40-10-65-43-65-34 0-45 26-45 65 0 36 10 65 43 65" id="S"/><path fill="#333" d="M220-157c-53 9-28 100-34 157h-49v-107c1-27-5-49-29-50C55-147 81-57 75 0H25l-1-190h47c2 12-1 28 3 38 10-53 101-56 108 0 13-22 24-43 59-42 82 1 51 116 57 194h-49v-107c-1-25-5-48-29-50" id="T"/><path fill="#333" d="M185-48c-13 30-37 53-82 52C43 2 14-33 14-96s30-98 90-98c62 0 83 45 84 108H66c0 31 8 55 39 56 18 0 30-7 34-22zm-45-69c5-46-57-63-70-21-2 6-4 13-4 21h74" id="U"/><path fill="#333" d="M135-150c-39-12-60 13-60 57V0H25l-1-190h47c2 13-1 29 3 40 6-28 27-53 61-41v41" id="V"/><path fill="#333" d="M14-72v-43h91v43H14" id="W"/><path fill="#333" d="M169-182c-1-43-94-46-97-3 18 66 151 10 154 114 3 95-165 93-204 36-6-8-10-19-12-30l50-8c3 46 112 56 116 5-17-69-150-10-154-114-4-87 153-88 188-35 5 8 8 18 10 28" id="X"/><path fill="#333" d="M114-157C55-157 80-60 75 0H25v-261h50l-1 109c12-26 28-41 61-42 86-1 58 113 63 194h-50c-7-57 23-157-34-157" id="Y"/><path fill="#333" d="M135-194c53 0 70 44 70 98 0 56-19 98-73 100-31 1-45-17-59-34 3 33 2 69 2 105H25l-1-265h48c2 10 0 23 3 31 11-24 29-35 60-35zM114-30c33 0 39-31 40-66 0-38-9-64-40-64-56 0-55 130 0 130" id="Z"/><path fill="#333" d="M231 0h-52l-39-155L100 0H48L-1-190h46L77-45c9-52 24-97 36-145h53l37 145 32-145h46" id="aa"/><path fill="#333" d="M135-194c87-1 58 113 63 194h-50c-7-57 23-157-34-157-59 0-34 97-39 157H25l-1-190h47c2 12-1 28 3 38 12-26 28-41 61-42" id="ab"/><g id="a"><use transform="matrix(0.12345679012345674,0,0,0.12345679012345674,0,0)" xlink:href="#O"/><use transform="matrix(0.12345679012345674,0,0,0.12345679012345674,31.975308641975296,0)" xlink:href="#P"/><use transform="matrix(0.12345679012345674,0,0,0.12345679012345674,59.01234567901233,0)" xlink:href="#Q"/><use transform="matrix(0.12345679012345674,0,0,0.12345679012345674,83.70370370370367,0)" xlink:href="#R"/><use transform="matrix(0.12345679012345674,0,0,0.12345679012345674,98.39506172839502,0)" xlink:href="#S"/><use transform="matrix(0.12345679012345674,0,0,0.12345679012345674,125.43209876543204,0)" xlink:href="#T"/><use transform="matrix(0.12345679012345674,0,0,0.12345679012345674,164.9382716049382,0)" xlink:href="#U"/><use transform="matrix(0.12345679012345674,0,0,0.12345679012345674,189.62962962962953,0)" xlink:href="#V"/><use transform="matrix(0.12345679012345674,0,0,0.12345679012345674,206.91358024691348,0)" xlink:href="#W"/><use transform="matrix(0.12345679012345674,0,0,0.12345679012345674,221.60493827160482,0)" xlink:href="#X"/><use transform="matrix(0.12345679012345674,0,0,0.12345679012345674,251.23456790123444,0)" xlink:href="#Y"/><use transform="matrix(0.12345679012345674,0,0,0.12345679012345674,278.2716049382715,0)" xlink:href="#S"/><use transform="matrix(0.12345679012345674,0,0,0.12345679012345674,305.3086419753085,0)" xlink:href="#Z"/><use transform="matrix(0.12345679012345674,0,0,0.12345679012345674,332.3456790123455,0)" xlink:href="#S"/><use transform="matrix(0.12345679012345674,0,0,0.12345679012345674,359.3827160493825,0)" xlink:href="#aa"/><use transform="matrix(0.12345679012345674,0,0,0.12345679012345674,393.9506172839504,0)" xlink:href="#ab"/><use transform="matrix(0.12345679012345674,0,0,0.12345679012345674,420.9876543209874,0)" xlink:href="#U"/><use transform="matrix(0.12345679012345674,0,0,0.12345679012345674,445.67901234567876,0)" xlink:href="#V"/></g><path fill="#333" d="M24 0v-248h52V0H24" id="ac"/><path fill="#333" d="M133-34C117-15 103 5 69 4 32 3 11-16 11-54c-1-60 55-63 116-61 1-26-3-47-28-47-18 1-26 9-28 27l-52-2c7-38 36-58 82-57s74 22 75 68l1 82c-1 14 12 18 25 15v27c-30 8-71 5-69-32zm-48 3c29 0 43-24 42-57-32 0-66-3-65 30 0 17 8 27 23 27" id="ad"/><path fill="#333" d="M190-63c-7 42-38 67-86 67-59 0-84-38-90-98-12-110 154-137 174-36l-49 2c-2-19-15-32-35-32-30 0-35 28-38 64-6 74 65 87 74 30" id="ae"/><path fill="#333" d="M25-224v-37h50v37H25zM25 0v-190h50V0H25" id="af"/><g id="b"><use transform="matrix(0.12345679012345674,0,0,0.12345679012345674,0,0)" xlink:href="#ac"/><use transform="matrix(0.12345679012345674,0,0,0.12345679012345674,12.345679012345673,0)" xlink:href="#ab"/><use transform="matrix(0.12345679012345674,0,0,0.12345679012345674,39.3827160493827,0)" xlink:href="#R"/><use transform="matrix(0.12345679012345674,0,0,0.12345679012345674,54.074074074074055,0)" xlink:href="#U"/><use transform="matrix(0.12345679012345674,0,0,0.12345679012345674,78.7654320987654,0)" xlink:href="#V"/><use transform="matrix(0.12345679012345674,0,0,0.12345679012345674,96.04938271604934,0)" xlink:href="#ad"/><use transform="matrix(0.12345679012345674,0,0,0.12345679012345674,120.74074074074068,0)" xlink:href="#ae"/><use transform="matrix(0.12345679012345674,0,0,0.12345679012345674,145.43209876543202,0)" xlink:href="#R"/><use transform="matrix(0.12345679012345674,0,0,0.12345679012345674,160.12345679012336,0)" xlink:href="#af"/><use transform="matrix(0.12345679012345674,0,0,0.12345679012345674,172.46913580246903,0)" xlink:href="#S"/><use transform="matrix(0.12345679012345674,0,0,0.12345679012345674,199.50617283950606,0)" xlink:href="#ab"/></g><path fill="#333" d="M175 0L67-191c6 58 2 128 3 191H24v-248h59L193-55c-6-58-2-129-3-193h46V0h-61" id="ag"/><path fill="#333" d="M88-194c31-1 46 15 58 34l-1-101h50l1 261h-48c-2-10 0-23-3-31C134-8 116 4 84 4 32 4 16-41 15-95c0-56 19-97 73-99zm17 164c33 0 40-30 41-66 1-37-9-64-41-64s-38 30-39 65c0 43 13 65 39 65" id="ah"/><g id="c"><use transform="matrix(0.12345679012345674,0,0,0.12345679012345674,0,0)" xlink:href="#ag"/><use transform="matrix(0.12345679012345674,0,0,0.12345679012345674,31.975308641975296,0)" xlink:href="#S"/><use transform="matrix(0.12345679012345674,0,0,0.12345679012345674,59.01234567901233,0)" xlink:href="#ah"/><use transform="matrix(0.12345679012345674,0,0,0.12345679012345674,86.04938271604935,0)" xlink:href="#U"/></g><path fill="#333" d="M96-169c-40 0-48 33-48 73s9 75 48 75c24 0 41-14 43-38l32 2c-6 37-31 61-74 61-59 0-76-41-82-99-10-93 101-131 147-64 4 7 5 14 7 22l-32 3c-4-21-16-35-41-35" id="ai"/><path fill="#333" d="M100-194c62-1 85 37 85 99 1 63-27 99-86 99S16-35 15-95c0-66 28-99 85-99zM99-20c44 1 53-31 53-75 0-43-8-75-51-75s-53 32-53 75 10 74 51 75" id="aj"/><path fill="#333" d="M117-194c89-4 53 116 60 194h-32v-121c0-31-8-49-39-48C34-167 62-67 57 0H25l-1-190h30c1 10-1 24 2 32 11-22 29-35 61-36" id="ak"/><path fill="#333" d="M100-194c63 0 86 42 84 106H49c0 40 14 67 53 68 26 1 43-12 49-29l28 8c-11 28-37 45-77 45C44 4 14-33 15-96c1-61 26-98 85-98zm52 81c6-60-76-77-97-28-3 7-6 17-6 28h103" id="al"/><path fill="#333" d="M59-47c-2 24 18 29 38 22v24C64 9 27 4 27-40v-127H5v-23h24l9-43h21v43h35v23H59v120" id="am"/><path fill="#333" d="M85-194c31 0 48 13 60 33l-1-100h32l1 261h-30c-2-10 0-23-3-31C134-8 116 4 85 4 32 4 16-35 15-94c0-66 23-100 70-100zm9 24c-40 0-46 34-46 75 0 40 6 74 45 74 42 0 51-32 51-76 0-42-9-74-50-73" id="an"/><path fill="#333" d="M212-179c-10-28-35-45-73-45-59 0-87 40-87 99 0 60 29 101 89 101 43 0 62-24 78-52l27 14C228-24 195 4 139 4 59 4 22-46 18-125c-6-104 99-153 187-111 19 9 31 26 39 46" id="ao"/><path fill="#333" d="M84 4C-5 8 30-112 23-190h32v120c0 31 7 50 39 49 72-2 45-101 50-169h31l1 190h-30c-1-10 1-25-2-33-11 22-28 36-60 37" id="ap"/><path fill="#333" d="M135-143c-3-34-86-38-87 0 15 53 115 12 119 90S17 21 10-45l28-5c4 36 97 45 98 0-10-56-113-15-118-90-4-57 82-63 122-42 12 7 21 19 24 35" id="aq"/><path fill="#333" d="M210-169c-67 3-38 105-44 169h-31v-121c0-29-5-50-35-48C34-165 62-65 56 0H25l-1-190h30c1 10-1 24 2 32 10-44 99-50 107 0 11-21 27-35 58-36 85-2 47 119 55 194h-31v-121c0-29-5-49-35-48" id="ar"/><path fill="#333" d="M114-163C36-179 61-72 57 0H25l-1-190h30c1 12-1 29 2 39 6-27 23-49 58-41v29" id="as"/><path fill="#333" d="M185-189c-5-48-123-54-124 2 14 75 158 14 163 119 3 78-121 87-175 55-17-10-28-26-33-46l33-7c5 56 141 63 141-1 0-78-155-14-162-118-5-82 145-84 179-34 5 7 8 16 11 25" id="at"/><path fill="#333" d="M106-169C34-169 62-67 57 0H25v-261h32l-1 103c12-21 28-36 61-36 89 0 53 116 60 194h-32v-121c2-32-8-49-39-48" id="au"/><path fill="#333" d="M115-194c55 1 70 41 70 98S169 2 115 4C84 4 66-9 55-30l1 105H24l-1-265h31l2 30c10-21 28-34 59-34zm-8 174c40 0 45-34 45-75s-6-73-45-74c-42 0-51 32-51 76 0 43 10 73 51 73" id="av"/><path fill="#333" d="M33 0v-248h34V0H33" id="aw"/><path fill="#333" d="M141-36C126-15 110 5 73 4 37 3 15-17 15-53c-1-64 63-63 125-63 3-35-9-54-41-54-24 1-41 7-42 31l-33-3c5-37 33-52 76-52 45 0 72 20 72 64v82c-1 20 7 32 28 27v20c-31 9-61-2-59-35zM48-53c0 20 12 33 32 33 41-3 63-29 60-74-43 2-92-5-92 41" id="ax"/><path fill="#333" d="M24-231v-30h32v30H24zM24 0v-190h32V0H24" id="ay"/><g id="d"><use transform="matrix(0.06790123456790124,0,0,0.06790123456790124,0,0)" xlink:href="#ai"/><use transform="matrix(0.06790123456790124,0,0,0.06790123456790124,12.222222222222223,0)" xlink:href="#aj"/><use transform="matrix(0.06790123456790124,0,0,0.06790123456790124,25.802469135802472,0)" xlink:href="#ak"/><use transform="matrix(0.06790123456790124,0,0,0.06790123456790124,39.38271604938272,0)" xlink:href="#ak"/><use transform="matrix(0.06790123456790124,0,0,0.06790123456790124,52.96296296296297,0)" xlink:href="#al"/><use transform="matrix(0.06790123456790124,0,0,0.06790123456790124,66.54320987654322,0)" xlink:href="#ai"/><use transform="matrix(0.06790123456790124,0,0,0.06790123456790124,78.76543209876544,0)" xlink:href="#am"/><use transform="matrix(0.06790123456790124,0,0,0.06790123456790124,85.55555555555557,0)" xlink:href="#al"/><use transform="matrix(0.06790123456790124,0,0,0.06790123456790124,99.13580246913584,0)" xlink:href="#an"/><use transform="matrix(0.06790123456790124,0,0,0.06790123456790124,112.71604938271608,0)" xlink:href="#ao"/><use transform="matrix(0.06790123456790124,0,0,0.06790123456790124,130.3024691358025,0)" xlink:href="#ap"/><use transform="matrix(0.06790123456790124,0,0,0.06790123456790124,143.88271604938276,0)" xlink:href="#aq"/><use transform="matrix(0.06790123456790124,0,0,0.06790123456790124,156.104938271605,0)" xlink:href="#am"/><use transform="matrix(0.06790123456790124,0,0,0.06790123456790124,162.89506172839512,0)" xlink:href="#aj"/><use transform="matrix(0.06790123456790124,0,0,0.06790123456790124,176.47530864197537,0)" xlink:href="#ar"/><use transform="matrix(0.06790123456790124,0,0,0.06790123456790124,196.77777777777786,0)" xlink:href="#al"/><use transform="matrix(0.06790123456790124,0,0,0.06790123456790124,210.3580246913581,0)" xlink:href="#as"/><use transform="matrix(0.06790123456790124,0,0,0.06790123456790124,218.43827160493836,0)" xlink:href="#at"/><use transform="matrix(0.06790123456790124,0,0,0.06790123456790124,234.73456790123467,0)" xlink:href="#au"/><use transform="matrix(0.06790123456790124,0,0,0.06790123456790124,248.31481481481492,0)" xlink:href="#aj"/><use transform="matrix(0.06790123456790124,0,0,0.06790123456790124,261.89506172839515,0)" xlink:href="#av"/><use transform="matrix(0.06790123456790124,0,0,0.06790123456790124,275.4753086419754,0)" xlink:href="#aw"/><use transform="matrix(0.06790123456790124,0,0,0.06790123456790124,282.26543209876553,0)" xlink:href="#ak"/><use transform="matrix(0.06790123456790124,0,0,0.06790123456790124,295.8456790123458,0)" xlink:href="#am"/><use transform="matrix(0.06790123456790124,0,0,0.06790123456790124,302.6358024691359,0)" xlink:href="#al"/><use transform="matrix(0.06790123456790124,0,0,0.06790123456790124,316.21604938271616,0)" xlink:href="#as"/><use transform="matrix(0.06790123456790124,0,0,0.06790123456790124,324.2962962962964,0)" xlink:href="#ax"/><use transform="matrix(0.06790123456790124,0,0,0.06790123456790124,337.8765432098767,0)" xlink:href="#ai"/><use transform="matrix(0.06790123456790124,0,0,0.06790123456790124,350.0987654320989,0)" xlink:href="#am"/><use transform="matrix(0.06790123456790124,0,0,0.06790123456790124,356.888888888889,0)" xlink:href="#ay"/><use transform="matrix(0.06790123456790124,0,0,0.06790123456790124,362.2530864197532,0)" xlink:href="#aj"/><use transform="matrix(0.06790123456790124,0,0,0.06790123456790124,375.8333333333335,0)" xlink:href="#ak"/><use transform="matrix(0.06790123456790124,0,0,0.06790123456790124,389.41358024691374,0)" xlink:href="#aq"/></g><g id="e"><use transform="matrix(0.06790123456790124,0,0,0.06790123456790124,0,0)" xlink:href="#ai"/><use transform="matrix(0.06790123456790124,0,0,0.06790123456790124,12.222222222222223,0)" xlink:href="#aj"/><use transform="matrix(0.06790123456790124,0,0,0.06790123456790124,25.802469135802472,0)" xlink:href="#ak"/><use transform="matrix(0.06790123456790124,0,0,0.06790123456790124,39.38271604938272,0)" xlink:href="#ak"/><use transform="matrix(0.06790123456790124,0,0,0.06790123456790124,52.96296296296297,0)" xlink:href="#al"/><use transform="matrix(0.06790123456790124,0,0,0.06790123456790124,66.54320987654322,0)" xlink:href="#ai"/><use transform="matrix(0.06790123456790124,0,0,0.06790123456790124,78.76543209876544,0)" xlink:href="#am"/><use transform="matrix(0.06790123456790124,0,0,0.06790123456790124,85.55555555555557,0)" xlink:href="#al"/><use transform="matrix(0.06790123456790124,0,0,0.06790123456790124,99.13580246913584,0)" xlink:href="#an"/><use transform="matrix(0.06790123456790124,0,0,0.06790123456790124,112.71604938271608,0)" xlink:href="#ao"/><use transform="matrix(0.06790123456790124,0,0,0.06790123456790124,130.3024691358025,0)" xlink:href="#ap"/><use transform="matrix(0.06790123456790124,0,0,0.06790123456790124,143.88271604938276,0)" xlink:href="#aq"/><use transform="matrix(0.06790123456790124,0,0,0.06790123456790124,156.104938271605,0)" xlink:href="#am"/><use transform="matrix(0.06790123456790124,0,0,0.06790123456790124,162.89506172839512,0)" xlink:href="#aj"/><use transform="matrix(0.06790123456790124,0,0,0.06790123456790124,176.47530864197537,0)" xlink:href="#ar"/><use transform="matrix(0.06790123456790124,0,0,0.06790123456790124,196.77777777777786,0)" xlink:href="#al"/><use transform="matrix(0.06790123456790124,0,0,0.06790123456790124,210.3580246913581,0)" xlink:href="#as"/><use transform="matrix(0.06790123456790124,0,0,0.06790123456790124,218.43827160493836,0)" xlink:href="#at"/><use transform="matrix(0.06790123456790124,0,0,0.06790123456790124,234.73456790123467,0)" xlink:href="#au"/><use transform="matrix(0.06790123456790124,0,0,0.06790123456790124,248.31481481481492,0)" xlink:href="#aj"/><use transform="matrix(0.06790123456790124,0,0,0.06790123456790124,261.89506172839515,0)" xlink:href="#av"/><use transform="matrix(0.06790123456790124,0,0,0.06790123456790124,275.4753086419754,0)" xlink:href="#aw"/><use transform="matrix(0.06790123456790124,0,0,0.06790123456790124,282.26543209876553,0)" xlink:href="#ak"/><use transform="matrix(0.06790123456790124,0,0,0.06790123456790124,295.8456790123458,0)" xlink:href="#am"/><use transform="matrix(0.06790123456790124,0,0,0.06790123456790124,302.6358024691359,0)" xlink:href="#al"/><use transform="matrix(0.06790123456790124,0,0,0.06790123456790124,316.21604938271616,0)" xlink:href="#as"/><use transform="matrix(0.06790123456790124,0,0,0.06790123456790124,324.2962962962964,0)" xlink:href="#ax"/><use transform="matrix(0.06790123456790124,0,0,0.06790123456790124,337.8765432098767,0)" xlink:href="#ai"/><use transform="matrix(0.06790123456790124,0,0,0.06790123456790124,350.0987654320989,0)" xlink:href="#am"/><use transform="matrix(0.06790123456790124,0,0,0.06790123456790124,356.888888888889,0)" xlink:href="#ay"/><use transform="matrix(0.06790123456790124,0,0,0.06790123456790124,362.2530864197532,0)" xlink:href="#aj"/><use transform="matrix(0.06790123456790124,0,0,0.06790123456790124,375.8333333333335,0)" xlink:href="#ak"/><use transform="matrix(0.06790123456790124,0,0,0.06790123456790124,389.41358024691374,0)" xlink:href="#aq"/><use transform="matrix(0.06790123456790124,0,0,0.06790123456790124,401.63580246913597,0)" xlink:href="#aw"/><use transform="matrix(0.06790123456790124,0,0,0.06790123456790124,408.4259259259261,0)" xlink:href="#an"/></g><path fill="#333" d="M30-248c87 1 191-15 191 75 0 78-77 80-158 76V0H30v-248zm33 125c57 0 124 11 124-50 0-59-68-47-124-48v98" id="az"/><path fill="#333" d="M190 0L58-211 59 0H30v-248h39L202-35l-2-213h31V0h-41" id="aA"/><path fill="#333" d="M115-194c53 0 69 39 70 98 0 66-23 100-70 100C84 3 66-7 56-30L54 0H23l1-261h32v101c10-23 28-34 59-34zm-8 174c40 0 45-34 45-75 0-40-5-75-45-74-42 0-51 32-51 76 0 43 10 73 51 73" id="aB"/><g id="f"><use transform="matrix(0.06790123456790124,0,0,0.06790123456790124,0,0)" xlink:href="#ai"/><use transform="matrix(0.06790123456790124,0,0,0.06790123456790124,12.222222222222223,0)" xlink:href="#ap"/><use transform="matrix(0.06790123456790124,0,0,0.06790123456790124,25.802469135802472,0)" xlink:href="#aq"/><use transform="matrix(0.06790123456790124,0,0,0.06790123456790124,38.0246913580247,0)" xlink:href="#am"/><use transform="matrix(0.06790123456790124,0,0,0.06790123456790124,44.814814814814824,0)" xlink:href="#aj"/><use transform="matrix(0.06790123456790124,0,0,0.06790123456790124,58.39506172839507,0)" xlink:href="#ar"/><use transform="matrix(0.06790123456790124,0,0,0.06790123456790124,78.69753086419755,0)" xlink:href="#al"/><use transform="matrix(0.06790123456790124,0,0,0.06790123456790124,92.2777777777778,0)" xlink:href="#as"/><use transform="matrix(0.06790123456790124,0,0,0.06790123456790124,100.35802469135805,0)" xlink:href="#az"/><use transform="matrix(0.06790123456790124,0,0,0.06790123456790124,116.65432098765436,0)" xlink:href="#au"/><use transform="matrix(0.06790123456790124,0,0,0.06790123456790124,130.2345679012346,0)" xlink:href="#aj"/><use transform="matrix(0.06790123456790124,0,0,0.06790123456790124,143.81481481481487,0)" xlink:href="#ak"/><use transform="matrix(0.06790123456790124,0,0,0.06790123456790124,157.39506172839512,0)" xlink:href="#al"/><use transform="matrix(0.06790123456790124,0,0,0.06790123456790124,170.97530864197537,0)" xlink:href="#aA"/><use transform="matrix(0.06790123456790124,0,0,0.06790123456790124,188.5617283950618,0)" xlink:href="#ap"/><use transform="matrix(0.06790123456790124,0,0,0.06790123456790124,202.14197530864206,0)" xlink:href="#ar"/><use transform="matrix(0.06790123456790124,0,0,0.06790123456790124,222.44444444444454,0)" xlink:href="#aB"/><use transform="matrix(0.06790123456790124,0,0,0.06790123456790124,236.0246913580248,0)" xlink:href="#al"/><use transform="matrix(0.06790123456790124,0,0,0.06790123456790124,249.60493827160505,0)" xlink:href="#as"/></g><path fill="#333" d="M197 0v-115H63V0H30v-248h33v105h134v-105h34V0h-34" id="aC"/><path fill="#333" d="M205 0l-28-72H64L36 0H1l101-248h38L239 0h-34zm-38-99l-47-123c-12 45-31 82-46 123h93" id="aD"/><g id="g"><use transform="matrix(0.06790123456790124,0,0,0.06790123456790124,0,0)" xlink:href="#ai"/><use transform="matrix(0.06790123456790124,0,0,0.06790123456790124,12.222222222222223,0)" xlink:href="#ap"/><use transform="matrix(0.06790123456790124,0,0,0.06790123456790124,25.802469135802472,0)" xlink:href="#aq"/><use transform="matrix(0.06790123456790124,0,0,0.06790123456790124,38.0246913580247,0)" xlink:href="#am"/><use transform="matrix(0.06790123456790124,0,0,0.06790123456790124,44.814814814814824,0)" xlink:href="#aj"/><use transform="matrix(0.06790123456790124,0,0,0.06790123456790124,58.39506172839507,0)" xlink:href="#ar"/><use transform="matrix(0.06790123456790124,0,0,0.06790123456790124,78.69753086419755,0)" xlink:href="#al"/><use transform="matrix(0.06790123456790124,0,0,0.06790123456790124,92.2777777777778,0)" xlink:href="#as"/><use transform="matrix(0.06790123456790124,0,0,0.06790123456790124,100.35802469135805,0)" xlink:href="#aC"/><use transform="matrix(0.06790123456790124,0,0,0.06790123456790124,117.94444444444447,0)" xlink:href="#aj"/><use transform="matrix(0.06790123456790124,0,0,0.06790123456790124,131.5246913580247,0)" xlink:href="#ar"/><use transform="matrix(0.06790123456790124,0,0,0.06790123456790124,151.8271604938272,0)" xlink:href="#al"/><use transform="matrix(0.06790123456790124,0,0,0.06790123456790124,165.40740740740742,0)" xlink:href="#aD"/><use transform="matrix(0.06790123456790124,0,0,0.06790123456790124,181.70370370370375,0)" xlink:href="#an"/><use transform="matrix(0.06790123456790124,0,0,0.06790123456790124,195.283950617284,0)" xlink:href="#an"/><use transform="matrix(0.06790123456790124,0,0,0.06790123456790124,208.86419753086426,0)" xlink:href="#as"/><use transform="matrix(0.06790123456790124,0,0,0.06790123456790124,216.9444444444445,0)" xlink:href="#al"/><use transform="matrix(0.06790123456790124,0,0,0.06790123456790124,230.52469135802477,0)" xlink:href="#aq"/><use transform="matrix(0.06790123456790124,0,0,0.06790123456790124,242.74691358024702,0)" xlink:href="#aq"/></g><path fill="#333" d="M30 0v-248h33v221h125V0H30" id="aE"/><g id="h"><use transform="matrix(0.06790123456790124,0,0,0.06790123456790124,0,0)" xlink:href="#ai"/><use transform="matrix(0.06790123456790124,0,0,0.06790123456790124,12.222222222222223,0)" xlink:href="#ap"/><use transform="matrix(0.06790123456790124,0,0,0.06790123456790124,25.802469135802472,0)" xlink:href="#aq"/><use transform="matrix(0.06790123456790124,0,0,0.06790123456790124,38.0246913580247,0)" xlink:href="#am"/><use transform="matrix(0.06790123456790124,0,0,0.06790123456790124,44.814814814814824,0)" xlink:href="#aj"/><use transform="matrix(0.06790123456790124,0,0,0.06790123456790124,58.39506172839507,0)" xlink:href="#ar"/><use transform="matrix(0.06790123456790124,0,0,0.06790123456790124,78.69753086419755,0)" xlink:href="#al"/><use transform="matrix(0.06790123456790124,0,0,0.06790123456790124,92.2777777777778,0)" xlink:href="#as"/><use transform="matrix(0.06790123456790124,0,0,0.06790123456790124,100.35802469135805,0)" xlink:href="#aC"/><use transform="matrix(0.06790123456790124,0,0,0.06790123456790124,117.94444444444447,0)" xlink:href="#aj"/><use transform="matrix(0.06790123456790124,0,0,0.06790123456790124,131.5246913580247,0)" xlink:href="#ar"/><use transform="matrix(0.06790123456790124,0,0,0.06790123456790124,151.8271604938272,0)" xlink:href="#al"/><use transform="matrix(0.06790123456790124,0,0,0.06790123456790124,165.40740740740742,0)" xlink:href="#aE"/><use transform="matrix(0.06790123456790124,0,0,0.06790123456790124,178.9876543209877,0)" xlink:href="#ax"/><use transform="matrix(0.06790123456790124,0,0,0.06790123456790124,192.56790123456796,0)" xlink:href="#am"/><use transform="matrix(0.06790123456790124,0,0,0.06790123456790124,199.35802469135808,0)" xlink:href="#ay"/><use transform="matrix(0.06790123456790124,0,0,0.06790123456790124,204.72222222222229,0)" xlink:href="#am"/><use transform="matrix(0.06790123456790124,0,0,0.06790123456790124,211.5123456790124,0)" xlink:href="#ap"/><use transform="matrix(0.06790123456790124,0,0,0.06790123456790124,225.09259259259267,0)" xlink:href="#an"/><use transform="matrix(0.06790123456790124,0,0,0.06790123456790124,238.6728395061729,0)" xlink:href="#al"/></g><path fill="#333" d="M232-93c-1 65-40 97-104 97C67 4 28-28 28-90v-158h33c8 89-33 224 67 224 102 0 64-133 71-224h33v155" id="aF"/><g id="i"><use transform="matrix(0.06790123456790124,0,0,0.06790123456790124,0,0)" xlink:href="#ai"/><use transform="matrix(0.06790123456790124,0,0,0.06790123456790124,12.222222222222223,0)" xlink:href="#ap"/><use transform="matrix(0.06790123456790124,0,0,0.06790123456790124,25.802469135802472,0)" xlink:href="#aq"/><use transform="matrix(0.06790123456790124,0,0,0.06790123456790124,38.0246913580247,0)" xlink:href="#am"/><use transform="matrix(0.06790123456790124,0,0,0.06790123456790124,44.814814814814824,0)" xlink:href="#aj"/><use transform="matrix(0.06790123456790124,0,0,0.06790123456790124,58.39506172839507,0)" xlink:href="#ar"/><use transform="matrix(0.06790123456790124,0,0,0.06790123456790124,78.69753086419755,0)" xlink:href="#al"/><use transform="matrix(0.06790123456790124,0,0,0.06790123456790124,92.2777777777778,0)" xlink:href="#as"/><use transform="matrix(0.06790123456790124,0,0,0.06790123456790124,100.35802469135805,0)" xlink:href="#aF"/><use transform="matrix(0.06790123456790124,0,0,0.06790123456790124,117.94444444444447,0)" xlink:href="#aq"/><use transform="matrix(0.06790123456790124,0,0,0.06790123456790124,130.16666666666669,0)" xlink:href="#al"/><use transform="matrix(0.06790123456790124,0,0,0.06790123456790124,143.74691358024694,0)" xlink:href="#as"/><use transform="matrix(0.06790123456790124,0,0,0.06790123456790124,151.8271604938272,0)" xlink:href="#ak"/><use transform="matrix(0.06790123456790124,0,0,0.06790123456790124,165.40740740740742,0)" xlink:href="#ax"/><use transform="matrix(0.06790123456790124,0,0,0.06790123456790124,178.9876543209877,0)" xlink:href="#ar"/><use transform="matrix(0.06790123456790124,0,0,0.06790123456790124,199.29012345679018,0)" xlink:href="#al"/></g><path fill="#333" d="M177-190C167-65 218 103 67 71c-23-6-38-20-44-43l32-5c15 47 100 32 89-28v-30C133-14 115 1 83 1 29 1 15-40 15-95c0-56 16-97 71-98 29-1 48 16 59 35 1-10 0-23 2-32h30zM94-22c36 0 50-32 50-73 0-42-14-75-50-75-39 0-46 34-46 75s6 73 46 73" id="aG"/><g id="j"><use transform="matrix(0.06790123456790124,0,0,0.06790123456790124,0,0)" xlink:href="#ai"/><use transform="matrix(0.06790123456790124,0,0,0.06790123456790124,12.222222222222223,0)" xlink:href="#ap"/><use transform="matrix(0.06790123456790124,0,0,0.06790123456790124,25.802469135802472,0)" xlink:href="#aq"/><use transform="matrix(0.06790123456790124,0,0,0.06790123456790124,38.0246913580247,0)" xlink:href="#am"/><use transform="matrix(0.06790123456790124,0,0,0.06790123456790124,44.814814814814824,0)" xlink:href="#aj"/><use transform="matrix(0.06790123456790124,0,0,0.06790123456790124,58.39506172839507,0)" xlink:href="#ar"/><use transform="matrix(0.06790123456790124,0,0,0.06790123456790124,78.69753086419755,0)" xlink:href="#al"/><use transform="matrix(0.06790123456790124,0,0,0.06790123456790124,92.2777777777778,0)" xlink:href="#as"/><use transform="matrix(0.06790123456790124,0,0,0.06790123456790124,100.35802469135805,0)" xlink:href="#aC"/><use transform="matrix(0.06790123456790124,0,0,0.06790123456790124,117.94444444444447,0)" xlink:href="#aj"/><use transform="matrix(0.06790123456790124,0,0,0.06790123456790124,131.5246913580247,0)" xlink:href="#ar"/><use transform="matrix(0.06790123456790124,0,0,0.06790123456790124,151.8271604938272,0)" xlink:href="#al"/><use transform="matrix(0.06790123456790124,0,0,0.06790123456790124,165.40740740740742,0)" xlink:href="#aE"/><use transform="matrix(0.06790123456790124,0,0,0.06790123456790124,178.9876543209877,0)" xlink:href="#aj"/><use transform="matrix(0.06790123456790124,0,0,0.06790123456790124,192.56790123456796,0)" xlink:href="#ak"/><use transform="matrix(0.06790123456790124,0,0,0.06790123456790124,206.1481481481482,0)" xlink:href="#aG"/><use transform="matrix(0.06790123456790124,0,0,0.06790123456790124,219.72839506172846,0)" xlink:href="#ay"/><use transform="matrix(0.06790123456790124,0,0,0.06790123456790124,225.09259259259267,0)" xlink:href="#am"/><use transform="matrix(0.06790123456790124,0,0,0.06790123456790124,231.8827160493828,0)" xlink:href="#ap"/><use transform="matrix(0.06790123456790124,0,0,0.06790123456790124,245.46296296296305,0)" xlink:href="#an"/><use transform="matrix(0.06790123456790124,0,0,0.06790123456790124,259.0432098765433,0)" xlink:href="#al"/></g><g id="k"><use transform="matrix(0.06790123456790124,0,0,0.06790123456790124,0,0)" xlink:href="#aq"/><use transform="matrix(0.06790123456790124,0,0,0.06790123456790124,12.222222222222223,0)" xlink:href="#au"/><use transform="matrix(0.06790123456790124,0,0,0.06790123456790124,25.802469135802472,0)" xlink:href="#aj"/><use transform="matrix(0.06790123456790124,0,0,0.06790123456790124,39.38271604938272,0)" xlink:href="#av"/><use transform="matrix(0.06790123456790124,0,0,0.06790123456790124,52.96296296296297,0)" xlink:href="#aA"/><use transform="matrix(0.06790123456790124,0,0,0.06790123456790124,70.5493827160494,0)" xlink:href="#ax"/><use transform="matrix(0.06790123456790124,0,0,0.06790123456790124,84.12962962962965,0)" xlink:href="#ar"/><use transform="matrix(0.06790123456790124,0,0,0.06790123456790124,104.43209876543212,0)" xlink:href="#al"/></g><g id="l"><use transform="matrix(0.06790123456790124,0,0,0.06790123456790124,0,0)" xlink:href="#aq"/><use transform="matrix(0.06790123456790124,0,0,0.06790123456790124,12.222222222222223,0)" xlink:href="#au"/><use transform="matrix(0.06790123456790124,0,0,0.06790123456790124,25.802469135802472,0)" xlink:href="#aj"/><use transform="matrix(0.06790123456790124,0,0,0.06790123456790124,39.38271604938272,0)" xlink:href="#av"/><use transform="matrix(0.06790123456790124,0,0,0.06790123456790124,52.96296296296297,0)" xlink:href="#aE"/><use transform="matrix(0.06790123456790124,0,0,0.06790123456790124,66.54320987654322,0)" xlink:href="#ax"/><use transform="matrix(0.06790123456790124,0,0,0.06790123456790124,80.12345679012347,0)" xlink:href="#am"/><use transform="matrix(0.06790123456790124,0,0,0.06790123456790124,86.9135802469136,0)" xlink:href="#ay"/><use transform="matrix(0.06790123456790124,0,0,0.06790123456790124,92.2777777777778,0)" xlink:href="#am"/><use transform="matrix(0.06790123456790124,0,0,0.06790123456790124,99.06790123456793,0)" xlink:href="#ap"/><use transform="matrix(0.06790123456790124,0,0,0.06790123456790124,112.64814814814818,0)" xlink:href="#an"/><use transform="matrix(0.06790123456790124,0,0,0.06790123456790124,126.22839506172843,0)" xlink:href="#al"/></g><g id="m"><use transform="matrix(0.06790123456790124,0,0,0.06790123456790124,0,0)" xlink:href="#aq"/><use transform="matrix(0.06790123456790124,0,0,0.06790123456790124,12.222222222222223,0)" xlink:href="#au"/><use transform="matrix(0.06790123456790124,0,0,0.06790123456790124,25.802469135802472,0)" xlink:href="#aj"/><use transform="matrix(0.06790123456790124,0,0,0.06790123456790124,39.38271604938272,0)" xlink:href="#av"/><use transform="matrix(0.06790123456790124,0,0,0.06790123456790124,52.96296296296297,0)" xlink:href="#aD"/><use transform="matrix(0.06790123456790124,0,0,0.06790123456790124,69.25925925925927,0)" xlink:href="#an"/><use transform="matrix(0.06790123456790124,0,0,0.06790123456790124,82.83950617283952,0)" xlink:href="#an"/><use transform="matrix(0.06790123456790124,0,0,0.06790123456790124,96.41975308641977,0)" xlink:href="#as"/><use transform="matrix(0.06790123456790124,0,0,0.06790123456790124,104.50000000000003,0)" xlink:href="#al"/><use transform="matrix(0.06790123456790124,0,0,0.06790123456790124,118.08024691358028,0)" xlink:href="#aq"/><use transform="matrix(0.06790123456790124,0,0,0.06790123456790124,130.3024691358025,0)" xlink:href="#aq"/></g><path fill="#333" d="M127-220V0H93v-220H8v-28h204v28h-85" id="aH"/><path fill="#333" d="M179-190L93 31C79 59 56 82 12 73V49c39 6 53-20 64-50L1-190h34L92-34l54-156h33" id="aI"/><g id="n"><use transform="matrix(0.06172839506172839,0,0,0.06172839506172839,0,0)" xlink:href="#aq"/><use transform="matrix(0.06172839506172839,0,0,0.06172839506172839,11.11111111111111,0)" xlink:href="#au"/><use transform="matrix(0.06172839506172839,0,0,0.06172839506172839,23.45679012345679,0)" xlink:href="#aj"/><use transform="matrix(0.06172839506172839,0,0,0.06172839506172839,35.80246913580247,0)" xlink:href="#av"/><use transform="matrix(0.06172839506172839,0,0,0.06172839506172839,48.148148148148145,0)" xlink:href="#aH"/><use transform="matrix(0.06172839506172839,0,0,0.06172839506172839,60.432098765432094,0)" xlink:href="#aI"/><use transform="matrix(0.06172839506172839,0,0,0.06172839506172839,71.5432098765432,0)" xlink:href="#av"/><use transform="matrix(0.06172839506172839,0,0,0.06172839506172839,83.88888888888889,0)" xlink:href="#al"/></g><g id="o"><use transform="matrix(0.06172839506172839,0,0,0.06172839506172839,0,0)" xlink:href="#aq"/><use transform="matrix(0.06172839506172839,0,0,0.06172839506172839,11.11111111111111,0)" xlink:href="#au"/><use transform="matrix(0.06172839506172839,0,0,0.06172839506172839,23.45679012345679,0)" xlink:href="#aj"/><use transform="matrix(0.06172839506172839,0,0,0.06172839506172839,35.80246913580247,0)" xlink:href="#av"/><use transform="matrix(0.06172839506172839,0,0,0.06172839506172839,48.148148148148145,0)" xlink:href="#az"/><use transform="matrix(0.06172839506172839,0,0,0.06172839506172839,62.96296296296296,0)" xlink:href="#au"/><use transform="matrix(0.06172839506172839,0,0,0.06172839506172839,75.30864197530865,0)" xlink:href="#aj"/><use transform="matrix(0.06172839506172839,0,0,0.06172839506172839,87.65432098765433,0)" xlink:href="#ak"/><use transform="matrix(0.06172839506172839,0,0,0.06172839506172839,100.00000000000001,0)" xlink:href="#al"/><use transform="matrix(0.06172839506172839,0,0,0.06172839506172839,112.3456790123457,0)" xlink:href="#aA"/><use transform="matrix(0.06172839506172839,0,0,0.06172839506172839,128.33333333333334,0)" xlink:href="#ap"/><use transform="matrix(0.06172839506172839,0,0,0.06172839506172839,140.679012345679,0)" xlink:href="#ar"/><use transform="matrix(0.06172839506172839,0,0,0.06172839506172839,159.1358024691358,0)" xlink:href="#aB"/><use transform="matrix(0.06172839506172839,0,0,0.06172839506172839,171.48148148148147,0)" xlink:href="#al"/><use transform="matrix(0.06172839506172839,0,0,0.06172839506172839,183.82716049382714,0)" xlink:href="#as"/></g><path fill="#333" d="M140-251c81 0 123 46 123 126C263-46 219 4 140 4 59 4 17-45 17-125s42-126 123-126zm0 227c63 0 89-41 89-101s-29-99-89-99c-61 0-89 39-89 99S79-25 140-24" id="aJ"/><path fill="#333" d="M101-234c-31-9-42 10-38 44h38v23H63V0H32v-167H5v-23h27c-7-52 17-82 69-68v24" id="aK"/><path fill="#333" d="M266 0h-40l-56-210L115 0H75L2-248h35L96-30l15-64 43-154h32l59 218 59-218h35" id="aL"/><path fill="#333" d="M24 0v-261h32V0H24" id="aM"/><path fill="#333" d="M140-251c81 0 123 46 123 126C263-53 228-8 163 1c7 30 30 48 69 40v23c-55 16-95-15-103-61C56-3 17-48 17-125c0-80 42-126 123-126zm0 227c63 0 89-41 89-101s-29-99-89-99c-61 0-89 39-89 99S79-25 140-24" id="aN"/><g id="p"><use transform="matrix(0.06790123456790124,0,0,0.06790123456790124,0,0)" xlink:href="#av"/><use transform="matrix(0.06790123456790124,0,0,0.06790123456790124,13.580246913580249,0)" xlink:href="#as"/><use transform="matrix(0.06790123456790124,0,0,0.06790123456790124,21.660493827160497,0)" xlink:href="#ay"/><use transform="matrix(0.06790123456790124,0,0,0.06790123456790124,27.024691358024697,0)" xlink:href="#ai"/><use transform="matrix(0.06790123456790124,0,0,0.06790123456790124,39.24691358024692,0)" xlink:href="#al"/><use transform="matrix(0.06790123456790124,0,0,0.06790123456790124,52.827160493827165,0)" xlink:href="#aJ"/><use transform="matrix(0.06790123456790124,0,0,0.06790123456790124,71.83950617283952,0)" xlink:href="#aK"/><use transform="matrix(0.06790123456790124,0,0,0.06790123456790124,78.62962962962965,0)" xlink:href="#aL"/><use transform="matrix(0.06790123456790124,0,0,0.06790123456790124,101.64814814814817,0)" xlink:href="#au"/><use transform="matrix(0.06790123456790124,0,0,0.06790123456790124,115.22839506172843,0)" xlink:href="#aj"/><use transform="matrix(0.06790123456790124,0,0,0.06790123456790124,128.80864197530866,0)" xlink:href="#aM"/><use transform="matrix(0.06790123456790124,0,0,0.06790123456790124,134.17283950617286,0)" xlink:href="#al"/><use transform="matrix(0.06790123456790124,0,0,0.06790123456790124,147.75308641975312,0)" xlink:href="#aN"/><use transform="matrix(0.06790123456790124,0,0,0.06790123456790124,166.7654320987655,0)" xlink:href="#ap"/><use transform="matrix(0.06790123456790124,0,0,0.06790123456790124,180.34567901234573,0)" xlink:href="#ax"/><use transform="matrix(0.06790123456790124,0,0,0.06790123456790124,193.92592592592598,0)" xlink:href="#ak"/><use transform="matrix(0.06790123456790124,0,0,0.06790123456790124,207.50617283950623,0)" xlink:href="#am"/><use transform="matrix(0.06790123456790124,0,0,0.06790123456790124,214.29629629629636,0)" xlink:href="#ay"/><use transform="matrix(0.06790123456790124,0,0,0.06790123456790124,219.66049382716056,0)" xlink:href="#am"/><use transform="matrix(0.06790123456790124,0,0,0.06790123456790124,226.4506172839507,0)" xlink:href="#aI"/></g><g id="q"><use transform="matrix(0.06790123456790124,0,0,0.06790123456790124,0,0)" xlink:href="#ak"/><use transform="matrix(0.06790123456790124,0,0,0.06790123456790124,13.580246913580249,0)" xlink:href="#ax"/><use transform="matrix(0.06790123456790124,0,0,0.06790123456790124,27.160493827160497,0)" xlink:href="#ar"/><use transform="matrix(0.06790123456790124,0,0,0.06790123456790124,47.46296296296297,0)" xlink:href="#al"/></g><g id="r"><use transform="matrix(0.06790123456790124,0,0,0.06790123456790124,0,0)" xlink:href="#av"/><use transform="matrix(0.06790123456790124,0,0,0.06790123456790124,13.580246913580249,0)" xlink:href="#as"/><use transform="matrix(0.06790123456790124,0,0,0.06790123456790124,21.660493827160497,0)" xlink:href="#aj"/><use transform="matrix(0.06790123456790124,0,0,0.06790123456790124,35.24074074074075,0)" xlink:href="#an"/><use transform="matrix(0.06790123456790124,0,0,0.06790123456790124,48.820987654320994,0)" xlink:href="#ap"/><use transform="matrix(0.06790123456790124,0,0,0.06790123456790124,62.40123456790124,0)" xlink:href="#ai"/><use transform="matrix(0.06790123456790124,0,0,0.06790123456790124,74.62345679012347,0)" xlink:href="#am"/><use transform="matrix(0.06790123456790124,0,0,0.06790123456790124,81.4135802469136,0)" xlink:href="#aE"/><use transform="matrix(0.06790123456790124,0,0,0.06790123456790124,94.99382716049385,0)" xlink:href="#ay"/><use transform="matrix(0.06790123456790124,0,0,0.06790123456790124,100.35802469135805,0)" xlink:href="#aq"/><use transform="matrix(0.06790123456790124,0,0,0.06790123456790124,112.58024691358028,0)" xlink:href="#am"/></g><path fill="#333" d="M145-31C134-9 116 4 85 4 32 4 16-35 15-94c0-59 17-99 70-100 32-1 48 14 60 33 0-11-1-24 2-32h30l-1 268h-32zM93-21c41 0 51-33 51-76s-8-73-50-73c-40 0-46 35-46 75s5 74 45 74" id="aO"/><g id="s"><use transform="matrix(0.06790123456790124,0,0,0.06790123456790124,0,0)" xlink:href="#aO"/><use transform="matrix(0.06790123456790124,0,0,0.06790123456790124,13.580246913580249,0)" xlink:href="#ap"/><use transform="matrix(0.06790123456790124,0,0,0.06790123456790124,27.160493827160497,0)" xlink:href="#ax"/><use transform="matrix(0.06790123456790124,0,0,0.06790123456790124,40.74074074074075,0)" xlink:href="#ak"/><use transform="matrix(0.06790123456790124,0,0,0.06790123456790124,54.320987654320994,0)" xlink:href="#am"/><use transform="matrix(0.06790123456790124,0,0,0.06790123456790124,61.11111111111112,0)" xlink:href="#ay"/><use transform="matrix(0.06790123456790124,0,0,0.06790123456790124,66.47530864197532,0)" xlink:href="#am"/><use transform="matrix(0.06790123456790124,0,0,0.06790123456790124,73.26543209876544,0)" xlink:href="#aI"/></g><g id="t"><use transform="matrix(0.06790123456790124,0,0,0.06790123456790124,0,0)" xlink:href="#ap"/><use transform="matrix(0.06790123456790124,0,0,0.06790123456790124,13.580246913580249,0)" xlink:href="#ak"/><use transform="matrix(0.06790123456790124,0,0,0.06790123456790124,27.160493827160497,0)" xlink:href="#ay"/><use transform="matrix(0.06790123456790124,0,0,0.06790123456790124,32.5246913580247,0)" xlink:href="#aO"/><use transform="matrix(0.06790123456790124,0,0,0.06790123456790124,46.104938271604944,0)" xlink:href="#ap"/><use transform="matrix(0.06790123456790124,0,0,0.06790123456790124,59.6851851851852,0)" xlink:href="#al"/><use transform="matrix(0.06790123456790124,0,0,0.06790123456790124,73.26543209876544,0)" xlink:href="#az"/><use transform="matrix(0.06790123456790124,0,0,0.06790123456790124,89.56172839506173,0)" xlink:href="#as"/><use transform="matrix(0.06790123456790124,0,0,0.06790123456790124,97.641975308642,0)" xlink:href="#aj"/><use transform="matrix(0.06790123456790124,0,0,0.06790123456790124,111.22222222222226,0)" xlink:href="#an"/><use transform="matrix(0.06790123456790124,0,0,0.06790123456790124,124.80246913580253,0)" xlink:href="#ap"/><use transform="matrix(0.06790123456790124,0,0,0.06790123456790124,138.38271604938276,0)" xlink:href="#ai"/><use transform="matrix(0.06790123456790124,0,0,0.06790123456790124,150.604938271605,0)" xlink:href="#am"/><use transform="matrix(0.06790123456790124,0,0,0.06790123456790124,157.39506172839512,0)" xlink:href="#az"/><use transform="matrix(0.06790123456790124,0,0,0.06790123456790124,173.69135802469143,0)" xlink:href="#ap"/><use transform="matrix(0.06790123456790124,0,0,0.06790123456790124,187.27160493827165,0)" xlink:href="#aq"/><use transform="matrix(0.06790123456790124,0,0,0.06790123456790124,199.4938271604939,0)" xlink:href="#au"/><use transform="matrix(0.06790123456790124,0,0,0.06790123456790124,213.07407407407416,0)" xlink:href="#aw"/><use transform="matrix(0.06790123456790124,0,0,0.06790123456790124,219.8641975308643,0)" xlink:href="#an"/></g><g id="u"><use transform="matrix(0.06790123456790124,0,0,0.06790123456790124,0,0)" xlink:href="#aq"/><use transform="matrix(0.06790123456790124,0,0,0.06790123456790124,12.222222222222223,0)" xlink:href="#au"/><use transform="matrix(0.06790123456790124,0,0,0.06790123456790124,25.802469135802472,0)" xlink:href="#aj"/><use transform="matrix(0.06790123456790124,0,0,0.06790123456790124,39.38271604938272,0)" xlink:href="#av"/><use transform="matrix(0.06790123456790124,0,0,0.06790123456790124,52.96296296296297,0)" xlink:href="#aE"/><use transform="matrix(0.06790123456790124,0,0,0.06790123456790124,66.54320987654322,0)" xlink:href="#aj"/><use transform="matrix(0.06790123456790124,0,0,0.06790123456790124,80.12345679012347,0)" xlink:href="#ak"/><use transform="matrix(0.06790123456790124,0,0,0.06790123456790124,93.70370370370372,0)" xlink:href="#aG"/><use transform="matrix(0.06790123456790124,0,0,0.06790123456790124,107.28395061728398,0)" xlink:href="#ay"/><use transform="matrix(0.06790123456790124,0,0,0.06790123456790124,112.64814814814818,0)" xlink:href="#am"/><use transform="matrix(0.06790123456790124,0,0,0.06790123456790124,119.43827160493831,0)" xlink:href="#ap"/><use transform="matrix(0.06790123456790124,0,0,0.06790123456790124,133.01851851851856,0)" xlink:href="#an"/><use transform="matrix(0.06790123456790124,0,0,0.06790123456790124,146.59876543209882,0)" xlink:href="#al"/></g><path fill="#333" d="M30-248c118-7 216 8 213 122C240-48 200 0 122 0H30v-248zM63-27c89 8 146-16 146-99s-60-101-146-95v194" id="aP"/><g id="v"><use transform="matrix(0.06790123456790124,0,0,0.06790123456790124,0,0)" xlink:href="#ai"/><use transform="matrix(0.06790123456790124,0,0,0.06790123456790124,12.222222222222223,0)" xlink:href="#ax"/><use transform="matrix(0.06790123456790124,0,0,0.06790123456790124,25.802469135802472,0)" xlink:href="#aM"/><use transform="matrix(0.06790123456790124,0,0,0.06790123456790124,31.16666666666667,0)" xlink:href="#aM"/><use transform="matrix(0.06790123456790124,0,0,0.06790123456790124,36.53086419753087,0)" xlink:href="#aP"/><use transform="matrix(0.06790123456790124,0,0,0.06790123456790124,54.11728395061729,0)" xlink:href="#ap"/><use transform="matrix(0.06790123456790124,0,0,0.06790123456790124,67.69753086419755,0)" xlink:href="#as"/><use transform="matrix(0.06790123456790124,0,0,0.06790123456790124,75.7777777777778,0)" xlink:href="#ax"/><use transform="matrix(0.06790123456790124,0,0,0.06790123456790124,89.35802469135805,0)" xlink:href="#am"/><use transform="matrix(0.06790123456790124,0,0,0.06790123456790124,96.14814814814818,0)" xlink:href="#ay"/><use transform="matrix(0.06790123456790124,0,0,0.06790123456790124,101.51234567901237,0)" xlink:href="#aj"/><use transform="matrix(0.06790123456790124,0,0,0.06790123456790124,115.09259259259264,0)" xlink:href="#ak"/></g><g id="w"><use transform="matrix(0.06790123456790124,0,0,0.06790123456790124,0,0)" xlink:href="#aq"/><use transform="matrix(0.06790123456790124,0,0,0.06790123456790124,12.222222222222223,0)" xlink:href="#au"/><use transform="matrix(0.06790123456790124,0,0,0.06790123456790124,25.802469135802472,0)" xlink:href="#aj"/><use transform="matrix(0.06790123456790124,0,0,0.06790123456790124,39.38271604938272,0)" xlink:href="#av"/><use transform="matrix(0.06790123456790124,0,0,0.06790123456790124,52.96296296296297,0)" xlink:href="#ao"/><use transform="matrix(0.06790123456790124,0,0,0.06790123456790124,70.5493827160494,0)" xlink:href="#aj"/><use transform="matrix(0.06790123456790124,0,0,0.06790123456790124,84.12962962962965,0)" xlink:href="#ak"/><use transform="matrix(0.06790123456790124,0,0,0.06790123456790124,97.7098765432099,0)" xlink:href="#aK"/><use transform="matrix(0.06790123456790124,0,0,0.06790123456790124,104.50000000000003,0)" xlink:href="#ay"/><use transform="matrix(0.06790123456790124,0,0,0.06790123456790124,109.86419753086423,0)" xlink:href="#as"/><use transform="matrix(0.06790123456790124,0,0,0.06790123456790124,117.9444444444445,0)" xlink:href="#ar"/><use transform="matrix(0.06790123456790124,0,0,0.06790123456790124,138.24691358024697,0)" xlink:href="#al"/><use transform="matrix(0.06790123456790124,0,0,0.06790123456790124,151.82716049382722,0)" xlink:href="#an"/></g><g id="x"><use transform="matrix(0.06790123456790124,0,0,0.06790123456790124,0,0)" xlink:href="#ai"/><use transform="matrix(0.06790123456790124,0,0,0.06790123456790124,12.222222222222223,0)" xlink:href="#ap"/><use transform="matrix(0.06790123456790124,0,0,0.06790123456790124,25.802469135802472,0)" xlink:href="#aq"/><use transform="matrix(0.06790123456790124,0,0,0.06790123456790124,38.0246913580247,0)" xlink:href="#am"/><use transform="matrix(0.06790123456790124,0,0,0.06790123456790124,44.814814814814824,0)" xlink:href="#aj"/><use transform="matrix(0.06790123456790124,0,0,0.06790123456790124,58.39506172839507,0)" xlink:href="#ar"/><use transform="matrix(0.06790123456790124,0,0,0.06790123456790124,78.69753086419755,0)" xlink:href="#al"/><use transform="matrix(0.06790123456790124,0,0,0.06790123456790124,92.2777777777778,0)" xlink:href="#as"/><use transform="matrix(0.06790123456790124,0,0,0.06790123456790124,100.35802469135805,0)" xlink:href="#ao"/><use transform="matrix(0.06790123456790124,0,0,0.06790123456790124,117.94444444444447,0)" xlink:href="#aj"/><use transform="matrix(0.06790123456790124,0,0,0.06790123456790124,131.5246913580247,0)" xlink:href="#ak"/><use transform="matrix(0.06790123456790124,0,0,0.06790123456790124,145.10493827160496,0)" xlink:href="#aK"/><use transform="matrix(0.06790123456790124,0,0,0.06790123456790124,151.8950617283951,0)" xlink:href="#ay"/><use transform="matrix(0.06790123456790124,0,0,0.06790123456790124,157.2592592592593,0)" xlink:href="#as"/><use transform="matrix(0.06790123456790124,0,0,0.06790123456790124,165.33950617283955,0)" xlink:href="#ar"/><use transform="matrix(0.06790123456790124,0,0,0.06790123456790124,185.64197530864203,0)" xlink:href="#al"/><use transform="matrix(0.06790123456790124,0,0,0.06790123456790124,199.22222222222229,0)" xlink:href="#an"/></g><g id="y"><use transform="matrix(0.06790123456790124,0,0,0.06790123456790124,0,0)" xlink:href="#am"/><use transform="matrix(0.06790123456790124,0,0,0.06790123456790124,6.790123456790124,0)" xlink:href="#aj"/><use transform="matrix(0.06790123456790124,0,0,0.06790123456790124,20.370370370370374,0)" xlink:href="#am"/><use transform="matrix(0.06790123456790124,0,0,0.06790123456790124,27.160493827160497,0)" xlink:href="#ax"/><use transform="matrix(0.06790123456790124,0,0,0.06790123456790124,40.74074074074075,0)" xlink:href="#aM"/><use transform="matrix(0.06790123456790124,0,0,0.06790123456790124,46.104938271604944,0)" xlink:href="#az"/><use transform="matrix(0.06790123456790124,0,0,0.06790123456790124,62.40123456790124,0)" xlink:href="#as"/><use transform="matrix(0.06790123456790124,0,0,0.06790123456790124,70.4814814814815,0)" xlink:href="#ay"/><use transform="matrix(0.06790123456790124,0,0,0.06790123456790124,75.84567901234571,0)" xlink:href="#ai"/><use transform="matrix(0.06790123456790124,0,0,0.06790123456790124,88.06790123456793,0)" xlink:href="#al"/></g><path fill="#333" d="M233-177c-1 41-23 64-60 70L243 0h-38l-65-103H63V0H30v-248c88 3 205-21 203 71zM63-129c60-2 137 13 137-47 0-61-80-42-137-45v92" id="aQ"/><g id="z"><use transform="matrix(0.06790123456790124,0,0,0.06790123456790124,0,0)" xlink:href="#ai"/><use transform="matrix(0.06790123456790124,0,0,0.06790123456790124,12.222222222222223,0)" xlink:href="#ap"/><use transform="matrix(0.06790123456790124,0,0,0.06790123456790124,25.802469135802472,0)" xlink:href="#aq"/><use transform="matrix(0.06790123456790124,0,0,0.06790123456790124,38.0246913580247,0)" xlink:href="#am"/><use transform="matrix(0.06790123456790124,0,0,0.06790123456790124,44.814814814814824,0)" xlink:href="#aj"/><use transform="matrix(0.06790123456790124,0,0,0.06790123456790124,58.39506172839507,0)" xlink:href="#ar"/><use transform="matrix(0.06790123456790124,0,0,0.06790123456790124,78.69753086419755,0)" xlink:href="#al"/><use transform="matrix(0.06790123456790124,0,0,0.06790123456790124,92.2777777777778,0)" xlink:href="#as"/><use transform="matrix(0.06790123456790124,0,0,0.06790123456790124,100.35802469135805,0)" xlink:href="#aQ"/><use transform="matrix(0.06790123456790124,0,0,0.06790123456790124,117.94444444444447,0)" xlink:href="#al"/><use transform="matrix(0.06790123456790124,0,0,0.06790123456790124,131.5246913580247,0)" xlink:href="#ax"/><use transform="matrix(0.06790123456790124,0,0,0.06790123456790124,145.10493827160496,0)" xlink:href="#an"/><use transform="matrix(0.06790123456790124,0,0,0.06790123456790124,158.68518518518522,0)" xlink:href="#aI"/><use transform="matrix(0.06790123456790124,0,0,0.06790123456790124,170.90740740740742,0)" xlink:href="#aH"/><use transform="matrix(0.06790123456790124,0,0,0.06790123456790124,183.06172839506178,0)" xlink:href="#aj"/><use transform="matrix(0.06790123456790124,0,0,0.06790123456790124,196.64197530864203,0)" xlink:href="#ao"/><use transform="matrix(0.06790123456790124,0,0,0.06790123456790124,214.22839506172846,0)" xlink:href="#aj"/><use transform="matrix(0.06790123456790124,0,0,0.06790123456790124,227.80864197530872,0)" xlink:href="#ak"/><use transform="matrix(0.06790123456790124,0,0,0.06790123456790124,241.38888888888894,0)" xlink:href="#ak"/><use transform="matrix(0.06790123456790124,0,0,0.06790123456790124,254.96913580246922,0)" xlink:href="#al"/><use transform="matrix(0.06790123456790124,0,0,0.06790123456790124,268.5493827160495,0)" xlink:href="#ai"/><use transform="matrix(0.06790123456790124,0,0,0.06790123456790124,280.7716049382717,0)" xlink:href="#am"/></g><g id="A"><use transform="matrix(0.06790123456790124,0,0,0.06790123456790124,0,0)" xlink:href="#O"/><use transform="matrix(0.06790123456790124,0,0,0.06790123456790124,17.58641975308642,0)" xlink:href="#S"/><use transform="matrix(0.06790123456790124,0,0,0.06790123456790124,32.45679012345679,0)" xlink:href="#ab"/><use transform="matrix(0.06790123456790124,0,0,0.06790123456790124,47.327160493827165,0)" xlink:href="#ab"/><use transform="matrix(0.06790123456790124,0,0,0.06790123456790124,62.19753086419754,0)" xlink:href="#U"/><use transform="matrix(0.06790123456790124,0,0,0.06790123456790124,75.77777777777779,0)" xlink:href="#ae"/><use transform="matrix(0.06790123456790124,0,0,0.06790123456790124,89.35802469135804,0)" xlink:href="#R"/><use transform="matrix(0.06790123456790124,0,0,0.06790123456790124,97.43827160493828,0)" xlink:href="#U"/><use transform="matrix(0.06790123456790124,0,0,0.06790123456790124,111.01851851851855,0)" xlink:href="#ah"/></g><g id="B"><use transform="matrix(0.06790123456790124,0,0,0.06790123456790124,0,0)" xlink:href="#O"/><use transform="matrix(0.06790123456790124,0,0,0.06790123456790124,17.58641975308642,0)" xlink:href="#P"/><use transform="matrix(0.06790123456790124,0,0,0.06790123456790124,32.45679012345679,0)" xlink:href="#Q"/><use transform="matrix(0.06790123456790124,0,0,0.06790123456790124,46.03703703703704,0)" xlink:href="#R"/><use transform="matrix(0.06790123456790124,0,0,0.06790123456790124,54.117283950617285,0)" xlink:href="#S"/><use transform="matrix(0.06790123456790124,0,0,0.06790123456790124,68.98765432098766,0)" xlink:href="#T"/><use transform="matrix(0.06790123456790124,0,0,0.06790123456790124,90.71604938271605,0)" xlink:href="#U"/><use transform="matrix(0.06790123456790124,0,0,0.06790123456790124,104.2962962962963,0)" xlink:href="#V"/><use transform="matrix(0.06790123456790124,0,0,0.06790123456790124,113.80246913580248,0)" xlink:href="#W"/><use transform="matrix(0.06790123456790124,0,0,0.06790123456790124,121.88271604938274,0)" xlink:href="#X"/><use transform="matrix(0.06790123456790124,0,0,0.06790123456790124,138.17901234567904,0)" xlink:href="#Y"/><use transform="matrix(0.06790123456790124,0,0,0.06790123456790124,153.04938271604945,0)" xlink:href="#S"/><use transform="matrix(0.06790123456790124,0,0,0.06790123456790124,167.9197530864198,0)" xlink:href="#Z"/></g><g id="C"><use transform="matrix(0.06790123456790124,0,0,0.06790123456790124,0,0)" xlink:href="#ac"/><use transform="matrix(0.06790123456790124,0,0,0.06790123456790124,6.790123456790124,0)" xlink:href="#ab"/><use transform="matrix(0.06790123456790124,0,0,0.06790123456790124,21.660493827160497,0)" xlink:href="#R"/><use transform="matrix(0.06790123456790124,0,0,0.06790123456790124,29.740740740740748,0)" xlink:href="#U"/><use transform="matrix(0.06790123456790124,0,0,0.06790123456790124,43.320987654320994,0)" xlink:href="#V"/><use transform="matrix(0.06790123456790124,0,0,0.06790123456790124,52.827160493827165,0)" xlink:href="#ad"/><use transform="matrix(0.06790123456790124,0,0,0.06790123456790124,66.40740740740742,0)" xlink:href="#ae"/><use transform="matrix(0.06790123456790124,0,0,0.06790123456790124,79.98765432098767,0)" xlink:href="#R"/><use transform="matrix(0.06790123456790124,0,0,0.06790123456790124,88.06790123456793,0)" xlink:href="#af"/><use transform="matrix(0.06790123456790124,0,0,0.06790123456790124,94.85802469135805,0)" xlink:href="#S"/><use transform="matrix(0.06790123456790124,0,0,0.06790123456790124,109.72839506172842,0)" xlink:href="#ab"/><use transform="matrix(0.06790123456790124,0,0,0.06790123456790124,124.59876543209879,0)" xlink:href="#Q"/></g><path fill="#333" d="M16-82v-28h88v28H16" id="aR"/><path fill="#333" d="M27 0v-27h64v-190l-56 39v-29l58-41h29v221h61V0H27" id="aS"/><g id="D"><use transform="matrix(0.06790123456790124,0,0,0.06790123456790124,0,0)" xlink:href="#ai"/><use transform="matrix(0.06790123456790124,0,0,0.06790123456790124,12.222222222222223,0)" xlink:href="#ap"/><use transform="matrix(0.06790123456790124,0,0,0.06790123456790124,25.802469135802472,0)" xlink:href="#aq"/><use transform="matrix(0.06790123456790124,0,0,0.06790123456790124,38.0246913580247,0)" xlink:href="#am"/><use transform="matrix(0.06790123456790124,0,0,0.06790123456790124,44.814814814814824,0)" xlink:href="#aj"/><use transform="matrix(0.06790123456790124,0,0,0.06790123456790124,58.39506172839507,0)" xlink:href="#ar"/><use transform="matrix(0.06790123456790124,0,0,0.06790123456790124,78.69753086419755,0)" xlink:href="#al"/><use transform="matrix(0.06790123456790124,0,0,0.06790123456790124,92.2777777777778,0)" xlink:href="#as"/><use transform="matrix(0.06790123456790124,0,0,0.06790123456790124,100.35802469135805,0)" xlink:href="#at"/><use transform="matrix(0.06790123456790124,0,0,0.06790123456790124,116.65432098765436,0)" xlink:href="#au"/><use transform="matrix(0.06790123456790124,0,0,0.06790123456790124,130.2345679012346,0)" xlink:href="#aj"/><use transform="matrix(0.06790123456790124,0,0,0.06790123456790124,143.81481481481487,0)" xlink:href="#av"/><use transform="matrix(0.06790123456790124,0,0,0.06790123456790124,157.39506172839512,0)" xlink:href="#aw"/><use transform="matrix(0.06790123456790124,0,0,0.06790123456790124,164.18518518518525,0)" xlink:href="#ak"/><use transform="matrix(0.06790123456790124,0,0,0.06790123456790124,177.7654320987655,0)" xlink:href="#am"/><use transform="matrix(0.06790123456790124,0,0,0.06790123456790124,184.5555555555556,0)" xlink:href="#al"/><use transform="matrix(0.06790123456790124,0,0,0.06790123456790124,198.13580246913588,0)" xlink:href="#as"/><use transform="matrix(0.06790123456790124,0,0,0.06790123456790124,206.21604938271614,0)" xlink:href="#ax"/><use transform="matrix(0.06790123456790124,0,0,0.06790123456790124,219.7962962962964,0)" xlink:href="#ai"/><use transform="matrix(0.06790123456790124,0,0,0.06790123456790124,232.01851851851862,0)" xlink:href="#am"/><use transform="matrix(0.06790123456790124,0,0,0.06790123456790124,238.80864197530875,0)" xlink:href="#ay"/><use transform="matrix(0.06790123456790124,0,0,0.06790123456790124,244.17283950617295,0)" xlink:href="#aj"/><use transform="matrix(0.06790123456790124,0,0,0.06790123456790124,257.7530864197532,0)" xlink:href="#ak"/><use transform="matrix(0.06790123456790124,0,0,0.06790123456790124,271.3333333333334,0)" xlink:href="#aR"/><use transform="matrix(0.06790123456790124,0,0,0.06790123456790124,279.4135802469137,0)" xlink:href="#aS"/></g><g id="E"><use transform="matrix(0.06790123456790124,0,0,0.06790123456790124,0,0)" xlink:href="#ai"/><use transform="matrix(0.06790123456790124,0,0,0.06790123456790124,12.222222222222223,0)" xlink:href="#aj"/><use transform="matrix(0.06790123456790124,0,0,0.06790123456790124,25.802469135802472,0)" xlink:href="#ak"/><use transform="matrix(0.06790123456790124,0,0,0.06790123456790124,39.38271604938272,0)" xlink:href="#ak"/><use transform="matrix(0.06790123456790124,0,0,0.06790123456790124,52.96296296296297,0)" xlink:href="#al"/><use transform="matrix(0.06790123456790124,0,0,0.06790123456790124,66.54320987654322,0)" xlink:href="#ai"/><use transform="matrix(0.06790123456790124,0,0,0.06790123456790124,78.76543209876544,0)" xlink:href="#am"/><use transform="matrix(0.06790123456790124,0,0,0.06790123456790124,85.55555555555557,0)" xlink:href="#al"/><use transform="matrix(0.06790123456790124,0,0,0.06790123456790124,99.13580246913584,0)" xlink:href="#an"/><use transform="matrix(0.06790123456790124,0,0,0.06790123456790124,112.71604938271608,0)" xlink:href="#ao"/><use transform="matrix(0.06790123456790124,0,0,0.06790123456790124,130.3024691358025,0)" xlink:href="#ap"/><use transform="matrix(0.06790123456790124,0,0,0.06790123456790124,143.88271604938276,0)" xlink:href="#aq"/><use transform="matrix(0.06790123456790124,0,0,0.06790123456790124,156.104938271605,0)" xlink:href="#am"/><use transform="matrix(0.06790123456790124,0,0,0.06790123456790124,162.89506172839512,0)" xlink:href="#aj"/><use transform="matrix(0.06790123456790124,0,0,0.06790123456790124,176.47530864197537,0)" xlink:href="#ar"/><use transform="matrix(0.06790123456790124,0,0,0.06790123456790124,196.77777777777786,0)" xlink:href="#al"/><use transform="matrix(0.06790123456790124,0,0,0.06790123456790124,210.3580246913581,0)" xlink:href="#as"/><use transform="matrix(0.06790123456790124,0,0,0.06790123456790124,218.43827160493836,0)" xlink:href="#aw"/><use transform="matrix(0.06790123456790124,0,0,0.06790123456790124,225.2283950617285,0)" xlink:href="#ak"/><use transform="matrix(0.06790123456790124,0,0,0.06790123456790124,238.80864197530875,0)" xlink:href="#aK"/><use transform="matrix(0.06790123456790124,0,0,0.06790123456790124,245.59876543209887,0)" xlink:href="#aj"/></g><g id="F"><use transform="matrix(0.06790123456790124,0,0,0.06790123456790124,0,0)" xlink:href="#ai"/><use transform="matrix(0.06790123456790124,0,0,0.06790123456790124,12.222222222222223,0)" xlink:href="#aj"/><use transform="matrix(0.06790123456790124,0,0,0.06790123456790124,25.802469135802472,0)" xlink:href="#ak"/><use transform="matrix(0.06790123456790124,0,0,0.06790123456790124,39.38271604938272,0)" xlink:href="#ak"/><use transform="matrix(0.06790123456790124,0,0,0.06790123456790124,52.96296296296297,0)" xlink:href="#al"/><use transform="matrix(0.06790123456790124,0,0,0.06790123456790124,66.54320987654322,0)" xlink:href="#ai"/><use transform="matrix(0.06790123456790124,0,0,0.06790123456790124,78.76543209876544,0)" xlink:href="#am"/><use transform="matrix(0.06790123456790124,0,0,0.06790123456790124,85.55555555555557,0)" xlink:href="#al"/><use transform="matrix(0.06790123456790124,0,0,0.06790123456790124,99.13580246913584,0)" xlink:href="#an"/><use transform="matrix(0.06790123456790124,0,0,0.06790123456790124,112.71604938271608,0)" xlink:href="#at"/><use transform="matrix(0.06790123456790124,0,0,0.06790123456790124,129.01234567901238,0)" xlink:href="#au"/><use transform="matrix(0.06790123456790124,0,0,0.06790123456790124,142.59259259259264,0)" xlink:href="#aj"/><use transform="matrix(0.06790123456790124,0,0,0.06790123456790124,156.1728395061729,0)" xlink:href="#av"/><use transform="matrix(0.06790123456790124,0,0,0.06790123456790124,169.75308641975315,0)" xlink:href="#aw"/><use transform="matrix(0.06790123456790124,0,0,0.06790123456790124,176.54320987654327,0)" xlink:href="#ak"/><use transform="matrix(0.06790123456790124,0,0,0.06790123456790124,190.12345679012353,0)" xlink:href="#aK"/><use transform="matrix(0.06790123456790124,0,0,0.06790123456790124,196.91358024691365,0)" xlink:href="#aj"/></g><path fill="#333" d="M24-248c93 1 206-16 204 79-1 75-69 88-152 82V0H24v-248zm52 121c47 0 100 7 100-41 0-47-54-39-100-39v80" id="aT"/><path fill="#333" d="M24 0v-248h52v208h133V0H24" id="aU"/><g id="G"><use transform="matrix(0.06790123456790124,0,0,0.06790123456790124,0,0)" xlink:href="#aT"/><use transform="matrix(0.06790123456790124,0,0,0.06790123456790124,16.296296296296298,0)" xlink:href="#V"/><use transform="matrix(0.06790123456790124,0,0,0.06790123456790124,25.802469135802472,0)" xlink:href="#S"/><use transform="matrix(0.06790123456790124,0,0,0.06790123456790124,40.67283950617284,0)" xlink:href="#ah"/><use transform="matrix(0.06790123456790124,0,0,0.06790123456790124,55.543209876543216,0)" xlink:href="#P"/><use transform="matrix(0.06790123456790124,0,0,0.06790123456790124,70.41358024691357,0)" xlink:href="#ae"/><use transform="matrix(0.06790123456790124,0,0,0.06790123456790124,83.99382716049384,0)" xlink:href="#R"/><use transform="matrix(0.06790123456790124,0,0,0.06790123456790124,92.07407407407409,0)" xlink:href="#aU"/><use transform="matrix(0.06790123456790124,0,0,0.06790123456790124,106.94444444444446,0)" xlink:href="#af"/><use transform="matrix(0.06790123456790124,0,0,0.06790123456790124,113.73456790123458,0)" xlink:href="#Q"/><use transform="matrix(0.06790123456790124,0,0,0.06790123456790124,127.31481481481484,0)" xlink:href="#R"/></g><g id="H"><use transform="matrix(0.06790123456790124,0,0,0.06790123456790124,0,0)" xlink:href="#av"/><use transform="matrix(0.06790123456790124,0,0,0.06790123456790124,13.580246913580249,0)" xlink:href="#as"/><use transform="matrix(0.06790123456790124,0,0,0.06790123456790124,21.660493827160497,0)" xlink:href="#aj"/><use transform="matrix(0.06790123456790124,0,0,0.06790123456790124,35.24074074074075,0)" xlink:href="#an"/><use transform="matrix(0.06790123456790124,0,0,0.06790123456790124,48.820987654320994,0)" xlink:href="#ap"/><use transform="matrix(0.06790123456790124,0,0,0.06790123456790124,62.40123456790124,0)" xlink:href="#ai"/><use transform="matrix(0.06790123456790124,0,0,0.06790123456790124,74.62345679012347,0)" xlink:href="#am"/><use transform="matrix(0.06790123456790124,0,0,0.06790123456790124,81.4135802469136,0)" xlink:href="#aE"/><use transform="matrix(0.06790123456790124,0,0,0.06790123456790124,94.99382716049385,0)" xlink:href="#ay"/><use transform="matrix(0.06790123456790124,0,0,0.06790123456790124,100.35802469135805,0)" xlink:href="#aq"/><use transform="matrix(0.06790123456790124,0,0,0.06790123456790124,112.58024691358028,0)" xlink:href="#am"/><use transform="matrix(0.06790123456790124,0,0,0.06790123456790124,119.37037037037041,0)" xlink:href="#aw"/><use transform="matrix(0.06790123456790124,0,0,0.06790123456790124,126.16049382716055,0)" xlink:href="#am"/><use transform="matrix(0.06790123456790124,0,0,0.06790123456790124,132.95061728395066,0)" xlink:href="#al"/><use transform="matrix(0.06790123456790124,0,0,0.06790123456790124,146.53086419753092,0)" xlink:href="#ar"/><use transform="matrix(0.06790123456790124,0,0,0.06790123456790124,166.8333333333334,0)" xlink:href="#aR"/><use transform="matrix(0.06790123456790124,0,0,0.06790123456790124,174.91358024691368,0)" xlink:href="#aS"/></g><g id="I"><use transform="matrix(0.06790123456790124,0,0,0.06790123456790124,0,0)" xlink:href="#ay"/><use transform="matrix(0.06790123456790124,0,0,0.06790123456790124,5.364197530864199,0)" xlink:href="#ak"/><use transform="matrix(0.06790123456790124,0,0,0.06790123456790124,18.944444444444446,0)" xlink:href="#aK"/><use transform="matrix(0.06790123456790124,0,0,0.06790123456790124,25.734567901234573,0)" xlink:href="#aj"/><use transform="matrix(0.06790123456790124,0,0,0.06790123456790124,39.31481481481481,0)" xlink:href="#as"/><use transform="matrix(0.06790123456790124,0,0,0.06790123456790124,47.39506172839506,0)" xlink:href="#ar"/><use transform="matrix(0.06790123456790124,0,0,0.06790123456790124,67.69753086419753,0)" xlink:href="#ax"/><use transform="matrix(0.06790123456790124,0,0,0.06790123456790124,81.27777777777779,0)" xlink:href="#am"/><use transform="matrix(0.06790123456790124,0,0,0.06790123456790124,88.06790123456791,0)" xlink:href="#ay"/><use transform="matrix(0.06790123456790124,0,0,0.06790123456790124,93.43209876543212,0)" xlink:href="#aj"/><use transform="matrix(0.06790123456790124,0,0,0.06790123456790124,107.01234567901238,0)" xlink:href="#ak"/></g><g id="J"><use transform="matrix(0.06790123456790124,0,0,0.06790123456790124,0,0)" xlink:href="#aj"/><use transform="matrix(0.06790123456790124,0,0,0.06790123456790124,13.580246913580249,0)" xlink:href="#aK"/></g><g id="K"><use transform="matrix(0.06790123456790124,0,0,0.06790123456790124,0,0)" xlink:href="#av"/><use transform="matrix(0.06790123456790124,0,0,0.06790123456790124,13.580246913580249,0)" xlink:href="#as"/><use transform="matrix(0.06790123456790124,0,0,0.06790123456790124,21.660493827160497,0)" xlink:href="#aj"/><use transform="matrix(0.06790123456790124,0,0,0.06790123456790124,35.24074074074075,0)" xlink:href="#an"/><use transform="matrix(0.06790123456790124,0,0,0.06790123456790124,48.820987654320994,0)" xlink:href="#ap"/><use transform="matrix(0.06790123456790124,0,0,0.06790123456790124,62.40123456790124,0)" xlink:href="#ai"/><use transform="matrix(0.06790123456790124,0,0,0.06790123456790124,74.62345679012347,0)" xlink:href="#am"/></g><g id="L"><use transform="matrix(0.12345679012345674,0,0,0.12345679012345674,0,0)" xlink:href="#ag"/><use transform="matrix(0.12345679012345674,0,0,0.12345679012345674,31.975308641975296,0)" xlink:href="#S"/><use transform="matrix(0.12345679012345674,0,0,0.12345679012345674,59.01234567901233,0)" xlink:href="#ah"/><use transform="matrix(0.12345679012345674,0,0,0.12345679012345674,86.04938271604935,0)" xlink:href="#U"/></g><g id="M"><use transform="matrix(0.12345679012345674,0,0,0.12345679012345674,0,0)" xlink:href="#X"/><use transform="matrix(0.12345679012345674,0,0,0.12345679012345674,29.62962962962962,0)" xlink:href="#Y"/><use transform="matrix(0.12345679012345674,0,0,0.12345679012345674,56.66666666666664,0)" xlink:href="#S"/><use transform="matrix(0.12345679012345674,0,0,0.12345679012345674,83.70370370370367,0)" xlink:href="#V"/><use transform="matrix(0.12345679012345674,0,0,0.12345679012345674,100.98765432098762,0)" xlink:href="#R"/></g><path fill="#333" d="M147 0H94L2-248h55l64 206c17-72 42-137 63-206h54" id="aV"/><g id="N"><use transform="matrix(0.12345679012345674,0,0,0.12345679012345674,0,0)" xlink:href="#aV"/><use transform="matrix(0.12345679012345674,0,0,0.12345679012345674,27.160493827160483,0)" xlink:href="#U"/><use transform="matrix(0.12345679012345674,0,0,0.12345679012345674,51.85185185185183,0)" xlink:href="#V"/><use transform="matrix(0.12345679012345674,0,0,0.12345679012345674,69.13580246913577,0)" xlink:href="#Q"/><use transform="matrix(0.12345679012345674,0,0,0.12345679012345674,93.82716049382711,0)" xlink:href="#af"/><use transform="matrix(0.12345679012345674,0,0,0.12345679012345674,106.17283950617278,0)" xlink:href="#S"/><use transform="matrix(0.12345679012345674,0,0,0.12345679012345674,133.20987654320982,0)" xlink:href="#ab"/></g></defs></g></svg>